<?xml version="1.0" encoding="utf-8"?>
<!-- Generator: Adobe Illustrator 26.3.1, SVG Export Plug-In . SVG Version: 6.00 Build 0)  -->
<svg version="1.1" id="Layer_1" xmlns="http://www.w3.org/2000/svg" xmlns:xlink="http://www.w3.org/1999/xlink" x="0px" y="0px"
	 viewBox="0 0 900 600" style="enable-background:new 0 0 900 600;" xml:space="preserve">
<style type="text/css">
	.st0{fill:none;}
	.st1{fill-rule:evenodd;clip-rule:evenodd;fill:url(#SVGID_1_);}
	.st2{fill:#F8AE9D;}
	.st3{fill:#C4B5FD;}
	.st4{fill:#EB996E;}
	.st5{fill:#4F39A0;}
	.st6{fill:#FFFFFF;}
	.st7{fill-rule:evenodd;clip-rule:evenodd;fill:#E1E4E5;}
	.st8{fill:#5EEAD4;}
	.st9{fill:none;stroke:#5EEAD4;stroke-width:2.5;stroke-miterlimit:10;}
	.st10{fill:#FFFFFF;stroke:#E1E4E5;stroke-width:4;}
	.st11{fill:#E1E4E5;stroke:#E1E4E5;stroke-width:4;}
	.st12{fill:#0D9488;}
	.st13{fill:none;stroke:#FFFFFF;stroke-width:2.677;stroke-linecap:round;stroke-linejoin:round;}
	.st14{fill:#E1E4E5;}
</style>
<path class="st0" d="M0,0h900v600H0V0z"/>
<g>
	
		<linearGradient id="SVGID_1_" gradientUnits="userSpaceOnUse" x1="433.4129" y1="-18.543" x2="439.3529" y2="796.37" gradientTransform="matrix(1 0 0 -1 0 602)">
		<stop  offset="0" style="stop-color:#FFFFFF"/>
		<stop  offset="1" style="stop-color:#EEEEEE"/>
	</linearGradient>
	<path class="st1" d="M612.9,140.3c37.3,0,67.9,30.3,67.9,67.3S650.2,275,612.9,275c-7.5,0-13.6,6.1-13.6,13.5s6.1,13.5,13.6,13.5
		h35.5c18.2,0,33.1,14.8,33.1,32.9s-14.9,32.9-33.1,32.9c-15.7,0-28.6,12.8-28.6,28.4c0,28.5-23.5,51.8-52.2,51.8H260.8
		c-37.3,0-67.9-30.3-67.9-67.3s30.5-67.3,67.9-67.3h6.6c7.5,0,13.6-6.1,13.6-13.5c0-7.4-6.1-13.5-13.6-13.5h-44.2
		c-18.2,0-33.1-14.8-33.1-32.9c0-18,14.9-32.8,33-32.9h35.6c15.7,0,28.6-12.8,28.6-28.4c0-28.5,23.5-51.8,52.2-51.8H612.9
		L612.9,140.3z"/>
	<path class="st2" d="M480.8,287.8l-12.3-3.7l-53.4-1.6l-12,3.3l1.6,29.3l27.2,17.4l26.4-0.5l16.6-15.1l3.7-15L480.8,287.8
		L480.8,287.8z"/>
	<path class="st3" d="M326.6,335c3.9-8,7.6-14.4,10.9-19.4c6.5-10,16.4-17.2,27.9-20.3l43.6-11.8c0,0,2.3,43.5,32.2,43.5
		c30,0,35.8-40.8,35.8-40.8l50.4,20.1c1.7,0.7,13.4,4.7,27,33.9c13,27.8,18.6,42,18.6,42l-51.9,15l-3.2,46.7l1.1,26.7l-157.6-0.4
		l0.9-30.5l-0.7-46.8l-2,3.2l-52.5-21C307.1,375.1,313.8,361.3,326.6,335L326.6,335z"/>
	<path class="st2" d="M446.2,303.3c-12.8-0.2-27.3-25.2-27.3-25.2l-0.8-64.1c-0.7-18.4,10.8-34.2,31.5-34.3l1.9,0.1
		c19.3,0.9,34.5,14.9,35,32c0.5,16,0.8,33.7,0.2,42.2c-1.3,17.7-21.5,14.7-21.5,14.7c0,0,0.1,8.9,0,14.1
		C465.1,294.6,451.4,303.7,446.2,303.3L446.2,303.3z"/>
	<path class="st2" d="M424.5,217.6c-0.4-0.2-14.1-4.8-14.4,8.8c-0.3,13.6,14.1,11.1,14.1,10.7C424.2,236.8,424.5,217.6,424.5,217.6z
		 M568.5,383.5l21.1,42.4c2.4,4.7,3.5,10,3.2,15.3c-0.8,16.5-14.4,29.4-30.9,29.4l-61.1-1l-2.2-30.2l46.1-11.1l-17.5-33L568.5,383.5
		z M309.8,376.2c0,0-13.1,38.9-27.4,74.3c-0.3,0.7-0.6,2-0.9,2.7c-3.2,8.8,6.5,17.3,16.3,17.3l82.6-0.1v-26.8L329,432.7l18.6-41.3
		L309.8,376.2L309.8,376.2z"/>
	<path class="st4" d="M475.3,442.3c0,0.1-1.9-0.5-5-0.7c-3.1-0.2-7.5,0.1-11.9,2c-4.4,1.9-7.7,4.8-9.7,7.2c-2,2.4-2.9,4.2-3,4.1
		c0,0,0.2-0.5,0.6-1.2c0.4-0.8,1.1-1.9,2.1-3.1c2-2.5,5.3-5.5,9.8-7.4c4.5-1.9,9-2.2,12.1-1.9c1.6,0.1,2.8,0.4,3.7,0.6
		C474.8,442.1,475.3,442.3,475.3,442.3z M472.5,435.8c0,0.1-1.9-0.8-5.2-0.9c-3.3-0.1-7.9,0.9-12.2,3.4c-4.3,2.6-7.5,5.9-9.8,8.3
		c-1.1,1.2-2,2.1-2.7,2.9c-0.6,0.7-1,1-1,1c0,0,0.3-0.4,0.9-1.1c0.8-1,1.7-2,2.6-3c2.2-2.4,5.4-5.8,9.8-8.5
		c4.4-2.6,9.1-3.6,12.4-3.4c1.7,0.1,3,0.4,3.9,0.7c0.4,0.1,0.8,0.3,1,0.4C472.4,435.8,472.5,435.8,472.5,435.8z"/>
	<path class="st2" d="M363,438.6h11.9c0,0,26.8-9.7,32.3-8.7c5,0.8,23.1,12.9,26.7,15.3c0.4,0.3,0.7,0.6,0.9,1.1
		c0.7,2-0.2,4.1-2.2,4.9l-0.4,0.2l0.2,0.5c0.2,0.7,0.3,1.4,0.3,2.2c-0.1,2.5-3.6,3.3-4.9,1.1l0.7,1.2c0.3,0.5,0.4,1.1,0.4,1.6
		l-0.1,1.1c-0.1,1.2-0.9,2.3-2.1,2.7c-1.1,0.4-2.3,0-3.1-0.8c-2.3-2.5-7.3-7.6-10.6-8.2c-3-0.5-8-0.6-11-0.5c-1.5,0-2.9,0.9-3.4,2.4
		c2,0.1,15.9,7.4,20.8,10c1.5,0.8,2.7,2.2,2.9,4c0.2,1.5-0.6,3.2-3.6,2.4c-6.5-1.5-18.3-6.9-18.3-6.9s-6.1-1.7-10,1
		c-5.5,3.9-8.1,5.3-12.8,3.8c-4.7-1.6-8.2-3.8-8.2-3.8l-9.4-0.9C359.7,464.1,350.9,442,363,438.6z"/>
	<path class="st4" d="M398.3,443.2c0,0.1,1.9-0.5,5-0.7c3.1-0.2,7.5,0.1,11.9,2c4.4,1.9,7.7,4.8,9.7,7.2c2,2.4,2.9,4.2,3,4.1
		c0,0-0.2-0.5-0.6-1.2c-0.6-1.1-1.3-2.1-2.1-3.1c-2-2.5-5.3-5.5-9.8-7.4c-4.5-1.9-9-2.2-12.1-1.9c-1.2,0.1-2.5,0.3-3.7,0.6
		C398.8,443,398.3,443.1,398.3,443.2L398.3,443.2z M401.2,436.7c0,0.1,1.9-0.8,5.2-0.9c3.3-0.1,7.9,0.9,12.2,3.4
		c4.3,2.6,7.5,5.9,9.8,8.3c1.1,1.2,2,2.1,2.7,2.9c0.6,0.7,1,1,1,1c0,0-0.3-0.4-0.9-1.1c-0.8-1-1.7-2-2.6-3c-2.2-2.4-5.4-5.8-9.8-8.5
		c-4.4-2.6-9.1-3.6-12.4-3.4c-1.7,0.1-3,0.4-3.9,0.7c-0.4,0.1-0.8,0.3-1,0.4C401.3,436.6,401.2,436.7,401.2,436.7L401.2,436.7z"/>
	<path class="st5" d="M379,471.3h124.4c3.5,0,6.4-2.8,6.6-6.3l3.7-85.6c0.2-3.8-2.8-6.9-6.6-6.9H375.5c-3.8,0-6.8,3.1-6.6,6.9
		l3.5,85.7C372.6,468.5,375.5,471.3,379,471.3L379,471.3z"/>
	<path class="st6" d="M428.8,423.5c0,7,5.7,12.7,12.7,12.7c0,0,0,0,0,0c7,0,12.7-5.7,12.7-12.7c0,0,0,0,0,0c0-7-5.7-12.7-12.7-12.7
		c0,0,0,0,0,0C434.5,410.7,428.8,416.5,428.8,423.5z"/>
	<path class="st2" d="M429.3,242.4h-11.2v48.1h11.2V242.4z"/>
	<path class="st5" d="M424.9,199.4c2,2.6,5.6,3.2,8.5,3.7c4,0.7,5.9,2.1,8,6c1.3,2.5,2.6,5.2,4.9,6.5c1.9,1.1,1.8-1.7,2.1-3.9
		c0-0.2,0.1-0.4,0.1-0.6c0.5-1.7,2.3-1.4,2.8,0.3c0.5,1.5,1.5,2.8,2.9,3.6c0.2,0.1,0.5,0.2,0.7,0.2c0.3,0,0.6-0.3,0.8-0.6
		c0.4-0.6,0.9-1.3,1.3-2c1.4-2.5,4.2-1.6,5.8,0.8c1,1.5,2.2,3,3.9,3.3c0.5,0.1,1.2,0,1.4-0.5c0.3-0.6-0.2-1.3-0.1-1.9
		c0.1-0.6,0.3-0.9,0.6-1.4c1.1-2,3.7-2.1,5.3-0.4c1.1,1.2,2.3,2.3,3.4,3.3c0.5,0.4,1.2,0.9,1.7,0.4c0.3-0.2,0.3-0.6,0.4-1
		c0.3-1.9,0.6-3.7,0.8-5.6c0.2-1,0.7-2.4,1.7-2.2c0.5,0.1,0.7,0.6,1,1.1c0.3,0.6,5.9,6.9,6,6.5c0.9-3.6,2.7-6.9,3.5-10.6
		c5.7-23.3-19.5-42.1-38.6-42.2c-4.3,0-8.2,0-12.3,1c-4.4,1.1-9.1,2.7-13.1,5.1c-5.6,3.3-9.9,9.4-8.8,16.5"/>
	<path class="st5" d="M435,191.5c2.8,3.1,3.6,7.5,3.8,11.6c0.4,6.2-0.1,12.7-3.1,18.2c-0.8,1.6-1.5,9.3-2.8,8.9
		c-0.4-0.1-0.3-6.2-1.4-9.4c-1.7-5-9.5-6.9-13-3.8c-5.6,5.1-2.3,11.2-0.5,15c1.1,2.3,2.9,4.9,3.2,7.3c0.4,3.1,0.5,14.5-1.6,17.2
		c-1.8,2.2-3.6-8.5-5.2-10.7c-11.8-15.8-23.1-56-3-64.7c3.1-1.3,12.5-2,15.4-0.3"/>
	<path class="st7" d="M565.6,201.8h3.7c0.9,0,1.6-0.7,1.6-1.6v-3.7c0-0.9-0.7-1.6-1.6-1.6h-3.7c-0.9,0-1.6,0.7-1.6,1.6v3.7
		C563.9,201.1,564.7,201.8,565.6,201.8C565.6,201.8,565.6,201.8,565.6,201.8z M578.5,201.8h3.7c0.9,0,1.6-0.7,1.6-1.6v-3.7
		c0-0.9-0.7-1.6-1.6-1.6h-3.7c-0.9,0-1.6,0.7-1.6,1.6v3.7C576.9,201.1,577.6,201.8,578.5,201.8z M591.5,201.8h3.7
		c0.9,0,1.6-0.7,1.6-1.6v-3.7c0-0.9-0.7-1.6-1.6-1.6h-3.7c-0.9,0-1.6,0.7-1.6,1.6v3.7C589.9,201.1,590.6,201.8,591.5,201.8
		C591.5,201.8,591.5,201.8,591.5,201.8z M604.5,201.8h3.7c0.9,0,1.6-0.7,1.6-1.6v-3.7c0-0.9-0.7-1.6-1.6-1.6h-3.7
		c-0.9,0-1.6,0.7-1.6,1.6v3.7C602.9,201.1,603.6,201.8,604.5,201.8z M617.5,201.8h3.7c0.9,0,1.6-0.7,1.6-1.6v-3.7
		c0-0.9-0.7-1.6-1.6-1.6h-3.7c-0.9,0-1.6,0.7-1.6,1.6v3.7C615.9,201.1,616.6,201.8,617.5,201.8z M579,187.6h3.7
		c0.9,0,1.6-0.7,1.6-1.6v-3.8c0-0.9-0.7-1.6-1.6-1.6H579c-0.9,0-1.6,0.7-1.6,1.6v3.7C577.4,186.9,578.1,187.6,579,187.6
		C579,187.6,579,187.6,579,187.6z M592,187.6h3.7c0.9,0,1.6-0.7,1.6-1.6v-3.8c0-0.9-0.7-1.6-1.6-1.6H592c-0.9,0-1.6,0.7-1.6,1.6v3.7
		C590.4,186.9,591.1,187.6,592,187.6C592,187.6,592,187.6,592,187.6z M605,187.6h3.7c0.9,0,1.6-0.7,1.6-1.6v-3.8
		c0-0.9-0.7-1.6-1.6-1.6H605c-0.9,0-1.6,0.7-1.6,1.6v3.7C603.3,186.9,604.1,187.6,605,187.6z M591.5,217h3.7c0.9,0,1.6-0.7,1.6-1.6
		v-3.7c0-0.9-0.7-1.6-1.6-1.6h-3.7c-0.9,0-1.6,0.7-1.6,1.6v3.7C589.9,216.3,590.6,217,591.5,217C591.5,217,591.5,217,591.5,217z
		 M604.5,217h3.7c0.9,0,1.6-0.7,1.6-1.6v-3.7c0-0.9-0.7-1.6-1.6-1.6h-3.7c-0.9,0-1.6,0.7-1.6,1.6v3.7
		C602.9,216.3,603.6,217,604.5,217z"/>
	<path class="st8" d="M627.6,289.8c0.2-7.2,1.9-14.5,4.7-21.4c37.4,13.1,26.5-2.3,3.8-7.5c6.1-10.2,15.3-18.5,27.4-22.3
		c14.6-4.6,32,5.9,43.2,21.5c-17.6,7.3-13.9,30.6,4.4,6.9c3.7,6.6,6.2,13.6,7,20.6c2.1,17.3-5.8,34.3-31.7,41.9
		C644.9,341.8,626.7,316.9,627.6,289.8L627.6,289.8z M653.8,281c-11,0.3,4.4,12.6,12.6,6.7C671.5,283.9,664.8,280.7,653.8,281z"/>
	<path class="st9" d="M696.6,466.7c1.8-140.2-33-228.1-33-228.1"/>
	<path class="st8" d="M705.9,299c5.7,24.3,12.2,10.7,5.2-5.2c11.3-9.7,27.8-14.7,46.2-9.3c14.8,4.4,21.9,14.8,23,26.7
		c-23.7-1.1-29.5,14,0.1,5.6c-1.4,26.4-29.3,55.6-64.1,37.7C690.8,341.2,691.5,315.8,705.9,299L705.9,299z M740.3,331.3
		c12.6,3.4,13.2-5.9,2.2-7.2C734.7,323.2,727.7,327.9,740.3,331.3z"/>
	<path class="st9" d="M707.4,422.2c-5.8-88,44.6-132.4,44.6-132.4"/>
	<path class="st8" d="M606.7,350.8c-12.2-15.9-12.5-42-3.1-49.8c8.9-7.4,20.3-8.3,31.2-5.2c-2.8,16.6,10.8,23.9,7.5,2.7
		c25.5,11.4,44.6,42.2,16.2,57.5c-21.6,11.6-37.1,8.7-47.1-0.1C648,353.5,629.3,343.6,606.7,350.8L606.7,350.8z M616.3,323.9
		c-10.7,3.1-9.2,6.5,2.6,7.4C630.7,332.2,630.1,319.9,616.3,323.9z"/>
	<path class="st9" d="M676.3,421.4c3.5-87.2-65.4-119.1-65.4-119.1"/>
	<path class="st10" d="M746,411.8H637.4l15,42.3c3.8,10.8,14.1,18.1,25.6,18.1h27.5c11.5,0,21.8-7.2,25.6-18.1l1.9,0.7l-1.9-0.7
		L746,411.8L746,411.8z"/>
	<path class="st11" d="M761.3,410.4v-6.5h-138v6.5H761.3L761.3,410.4z"/>
	<path class="st8" d="M209.6,412.7l4.6,56.9h31.7l4.6-56.9H209.6z"/>
	<path class="st12" d="M207,407.6h46.5v8.3H207V407.6z M210.2,407.6h40.2l-2.3-9.3h-35.5L210.2,407.6z"/>
	<path class="st6" d="M221,441.7c0,5.1,4.2,9.3,9.3,9.3c0,0,0,0,0,0c5.1,0,9.3-4.2,9.3-9.3c0,0,0,0,0,0c0-5.1-4.2-9.3-9.3-9.3
		c0,0,0,0,0,0C225.1,432.4,221,436.5,221,441.7C221,441.7,221,441.7,221,441.7z"/>
	<path class="st7" d="M304.5,228.2v-47.4c0-4.9-4-8.9-8.9-8.9h-53.3c-4.9,0-8.9,4-8.9,8.9v47.4c0,3.2,1.7,6.2,4.6,7.8l26.6,14.8
		c2.7,1.5,5.9,1.5,8.6,0l26.6-14.8C302.7,234.4,304.5,231.4,304.5,228.2L304.5,228.2z"/>
	<path class="st13" d="M283.7,211.1h-29.5 M283.7,197.3h-29.5 M283.7,224.5h-29.5"/>
	<path class="st14" d="M760.5,469.6H122.6c-2.5,0-4.5,2-4.5,4.5l0,0c0,2.5,2,4.5,4.5,4.5h637.9c2.5,0,4.5-2,4.5-4.5l0,0
		C765,471.6,763,469.6,760.5,469.6z"/>
	<path class="st14" d="M285.3,375.4L267,357.2c-0.7-0.7-1.7-0.7-2.4,0l0,0c-0.7,0.7-0.7,1.7,0,2.4l18.2,18.2c0.7,0.7,1.7,0.7,2.4,0
		l0,0C285.9,377.2,285.9,376.1,285.3,375.4z"/>
	<path class="st14" d="M274.1,375.5l-5.3-5.3c-0.7-0.7-1.7-0.7-2.4,0l0,0c-0.7,0.7-0.7,1.7,0,2.4l5.3,5.3c0.7,0.7,1.7,0.7,2.4,0l0,0
		C274.7,377.2,274.7,376.2,274.1,375.5z"/>
</g>
</svg>
