<?xml version="1.0" encoding="utf-8"?>
<!-- Generator: Adobe Illustrator 26.3.1, SVG Export Plug-In . SVG Version: 6.00 Build 0)  -->
<svg version="1.1" id="Layer_1" xmlns="http://www.w3.org/2000/svg" xmlns:xlink="http://www.w3.org/1999/xlink" x="0px" y="0px"
	 viewBox="0 0 900 600" style="enable-background:new 0 0 900 600;" xml:space="preserve">
<style type="text/css">
	.st0{fill:none;}
	.st1{fill:#F8AE9D;}
	.st2{fill:#E1E4E5;}
	.st3{fill:#4F39A0;}
	.st4{fill:#C4B5FD;}
	.st5{fill:#5EEAD4;stroke:#FFFFFF;stroke-width:2;stroke-miterlimit:10;}
	.st6{fill-rule:evenodd;clip-rule:evenodd;fill:#FFFFFF;}
	.st7{fill:#C4B5FD;stroke:#FFFFFF;stroke-width:2;stroke-miterlimit:10;}
</style>
<g>
	<path class="st0" d="M0,0h900v600H0V0z"/>
	<path class="st1" d="M644.8,362.3c0,0-17.7,11.6-32.6,10.4c-14.9-1.2-24.3-16-29.3-21.4s-17.6-18.4-13.8-23.9s7.1,0.4,8.4,4.2
		c1.3,3.8,0-3.8,1.9-3.3c1.9,0.4,1.1,5,3,6.5c1.8,1.5,29.2,15.8,35,14.9s8.5-2.5,10.1-4.2C629.2,343.8,647,358.6,644.8,362.3
		L644.8,362.3z"/>
	<path class="st2" d="M587,503v7.9l-18.1,9.8v4.3h36.2v-7.3L607,503H587L587,503z"/>
	<path class="st3" d="M677.8,406.4c0,0-50-17.1-73-14.3c-22.7,4.6-22.9,32-22.8,48.2c0.1,16.1,2.8,62.8,2.8,62.8h25.4
		c0,0,9.1-41.9,12.1-61.7c0,0,1.2-8.9,7.9-5.5c27.4,13.8,44.6,7.6,47.7-5.5C681,417.3,677.8,406.4,677.8,406.4L677.8,406.4z"/>
	<path class="st4" d="M657.1,333.3c0,0-16.3,8-29.6,10.1c-13.9,2.1,5.5,20.2,20.6,20.2S657.1,333.3,657.1,333.3L657.1,333.3z"/>
	<path class="st2" d="M724.6,512.7h9.7l9,12.2h4.5v-34.1H740l-15.5,3.1L724.6,512.7L724.6,512.7z"/>
	<path class="st3" d="M724.6,513.5v-21c-20.5-2.1-28.5-2.3-50-2.4c-15.5-0.1-7.4-4.3-7.4-4.3c16.9-11.8,34.3-40.3,34.3-40.3
		c10.2-16,4.5-40.7,4.5-40.7s-18.7,5.5-34.8,4.6c0,0-17.4,21.4-47.7,68.5c-12.1,18.8-10.7,39.4,12,40.5
		C635.5,518.3,690.3,518.9,724.6,513.5L724.6,513.5z"/>
	<path class="st4" d="M662.9,331c0,0-14.5,2.7-16.2,21.4c-1.3,14-0.2,32.9-0.2,39s-3.1,5.6,1.2,7.4s26.9,20.2,57.9,6
		c0,0,4.8-28.1,3.4-45.1c-0.9-10.7-3.8-28.1-22.3-29.6L662.9,331L662.9,331z"/>
	<path class="st1" d="M667.3,301.9l-7.9-0.2c0,0-6.6,28.7,9.7,25.5l-0.3,3c0,0-5,0.7-6.9,1.1c0,0,5.6,4.9,12.4,4.3s11.5-5,11.5-5
		l-3.3-0.3l-1.2-12.1c0,0,3.9-2.1,4.1-4.5c0.2-2.4-0.3-3.1-2.1-3.9s-4.5,2-4.5,2s-2.5-5.8-2.7-9.5L667.3,301.9L667.3,301.9z"/>
	<path class="st3" d="M590.9,317.3l120.5,99.1c4,3.3,4.6,9.2,1.4,13.3c-3.3,4.1-9.2,4.8-13.3,1.5l-122.4-97.9L590.9,317.3z"/>
	<path class="st2" d="M546.4,227.2c33.5,0,60.7,27.2,60.7,60.7s-27.2,60.7-60.7,60.7s-60.7-27.2-60.7-60.7S512.9,227.2,546.4,227.2z
		 M546.4,330.8c23.7,0,42.9-19.2,42.9-42.9c0-23.7-19.2-42.9-42.9-42.9s-42.9,19.2-42.9,42.9S522.7,330.8,546.4,330.8z"/>
	<path class="st1" d="M692.3,397.2c0,0-17.7,11.6-32.6,10.4c-14.9-1.2-24.3-16-29.3-21.4s-17.6-18.4-13.8-23.9s7.1,0.4,8.4,4.2
		c1.3,3.8,0-3.8,1.9-3.3c1.9,0.4,1.1,5,3,6.5c1.8,1.5,29.2,15.8,35,14.9c5.9-0.8,8.5-2.5,10.1-4.2
		C676.6,378.6,694.5,393.4,692.3,397.2L692.3,397.2z"/>
	<path class="st4" d="M707.7,350.7c0,0,0.9,27-5.4,38.4c-6.3,11.3-6.8,11.7-12.6,5.6c-5.9-6.1-16.4-12.2-14.9-17.1
		s4.5-13.4,5.7-20.9c1.3-8,4.2-24.4,10.5-26.5C690.9,330.3,706,335.9,707.7,350.7L707.7,350.7z"/>
	<path class="st3" d="M684.9,318.1c-1.3,2.1-4.4,2.1-3.9-0.3c0.6-2.7,1-6.3-1.3-5.9s-2.6,2.2-3.4,1.1s-0.3-5.5-7-6.6
		c-6.6-1-9.6,1-12.5-0.7c-1.8-1-2.3-3.1-2.5-4.6c-0.1-0.4,0.3-1,0.6-0.6c0.2,0.3,0.9,0.4,0.7,0c-0.9-2.3-2.2-7.4,2.7-10.5
		c6.5-4.2,12.3-0.4,15.7,0.2c7.6,1.3,12.5,2.3,14.4,7.6C690,302.1,688.5,312.3,684.9,318.1z"/>
	<path class="st5" d="M207.3,328.3L207.3,328.3c26.4,0,47.7,21.4,47.7,47.7l0,0c0,26.4-21.4,47.7-47.7,47.7l0,0
		c-26.4,0-47.7-21.4-47.7-47.7l0,0C159.6,349.6,181,328.3,207.3,328.3z"/>
	<path class="st6" d="M229,396v3.2c0,1.8-1.4,3.2-3.1,3.2h-37.8c-1.7,0-3.1-1.4-3.1-3.2V396c0-9.7,10.9-15.9,22-15.9
		S229,386.3,229,396 M214.9,352c4.4,4.4,4.4,11.4,0,15.8s-11.4,4.4-15.8,0s-4.4-11.4,0-15.8S210.5,347.6,214.9,352z"/>
	<path class="st5" d="M435.6,351.1L435.6,351.1c26.4,0,47.7,21.4,47.7,47.7l0,0c0,26.4-21.4,47.7-47.7,47.7l0,0
		c-26.4,0-47.7-21.4-47.7-47.7l0,0C387.9,372.5,409.2,351.1,435.6,351.1z"/>
	<path class="st6" d="M457.3,418.9v3.2c0,1.8-1.4,3.2-3.1,3.2h-37.8c-1.7,0-3.1-1.4-3.1-3.2v-3.2c0-9.7,10.9-15.9,22-15.9
		C446.4,402.9,457.3,409.1,457.3,418.9 M443.2,374.8c4.4,4.4,4.4,11.4,0,15.8s-11.4,4.4-15.8,0s-4.4-11.4,0-15.8
		S438.8,370.5,443.2,374.8z"/>
	<path class="st7" d="M340,232.6L340,232.6c26.4,0,47.7,21.4,47.7,47.7l0,0c0,26.4-21.4,47.7-47.7,47.7l0,0
		c-26.4,0-47.7-21.4-47.7-47.7l0,0C292.2,254,313.6,232.6,340,232.6z"/>
	<path class="st6" d="M361.6,300.4v3.2c0,1.8-1.4,3.2-3.1,3.2h-37.8c-1.7,0-3.1-1.4-3.1-3.2v-3.2c0-9.7,10.9-15.9,22-15.9
		C350.8,284.4,361.6,290.7,361.6,300.4 M347.5,256.3c4.4,4.4,4.4,11.4,0,15.8s-11.4,4.4-15.8,0s-4.4-11.4,0-15.8
		S343.1,252,347.5,256.3z"/>
	<path class="st5" d="M199.7,170.7L199.7,170.7c26.4,0,47.7,21.4,47.7,47.7l0,0c0,26.4-21.4,47.7-47.7,47.7l0,0
		c-26.4,0-47.7-21.4-47.7-47.7l0,0C152,192,173.4,170.7,199.7,170.7z"/>
	<path class="st6" d="M221.4,238.4v3.2c0,1.8-1.4,3.2-3.1,3.2h-37.8c-1.7,0-3.1-1.4-3.1-3.2v-3.2c0-9.7,10.9-15.9,22-15.9
		S221.4,228.7,221.4,238.4 M207.3,194.4c4.4,4.4,4.4,11.4,0,15.8c-4.4,4.4-11.4,4.4-15.8,0c-4.4-4.4-4.4-11.4,0-15.8
		C195.8,190,202.9,190,207.3,194.4z"/>
	<path class="st7" d="M329.1,75L329.1,75c26.4,0,47.7,21.4,47.7,47.7l0,0c0,26.4-21.4,47.7-47.7,47.7l0,0
		c-26.4,0-47.7-21.4-47.7-47.7l0,0C281.4,96.4,302.7,75,329.1,75z"/>
	<path class="st6" d="M350.8,142.8v3.2c0,1.8-1.4,3.2-3.1,3.2h-37.8c-1.7,0-3.1-1.4-3.1-3.2v-3.2c0-9.7,10.9-15.9,22-15.9
		C339.9,126.8,350.8,133,350.8,142.8 M336.6,98.7c4.4,4.4,4.4,11.4,0,15.8s-11.4,4.4-15.8,0s-4.4-11.4,0-15.8
		C325.2,94.4,332.3,94.4,336.6,98.7z"/>
	<path class="st5" d="M456.3,128.3L456.3,128.3c26.4,0,47.7,21.4,47.7,47.7l0,0c0,26.4-21.4,47.7-47.7,47.7l0,0
		c-26.4,0-47.7-21.4-47.7-47.7l0,0C408.5,149.6,429.9,128.3,456.3,128.3z"/>
	<path class="st6" d="M478,196v3.2c0,1.8-1.4,3.2-3.1,3.2H437c-1.7,0-3.1-1.4-3.1-3.2V196c0-9.7,10.9-15.9,22-15.9
		C467.1,180,478,186.3,478,196 M463.8,152c4.4,4.4,4.4,11.4,0,15.8c-4.4,4.4-11.4,4.4-15.8,0s-4.4-11.4,0-15.8
		C452.4,147.6,459.4,147.6,463.8,152z"/>
	<path class="st7" d="M622.6,122.8L622.6,122.8c26.4,0,47.7,21.4,47.7,47.7l0,0c0,26.4-21.4,47.7-47.7,47.7l0,0
		c-26.4,0-47.7-21.4-47.7-47.7l0,0C574.8,144.2,596.2,122.8,622.6,122.8z"/>
	<path class="st6" d="M644.3,190.6v3.2c0,1.8-1.4,3.2-3.2,3.2h-37.8c-1.7,0-3.2-1.4-3.2-3.2v-3.2c0-9.7,10.9-15.9,22-15.9
		C633.4,174.6,644.3,180.9,644.3,190.6 M630.1,146.6c4.4,4.4,4.4,11.4,0,15.8c-4.4,4.4-11.4,4.4-15.8,0c-4.4-4.4-4.4-11.4,0-15.8
		S625.8,142.2,630.1,146.6z"/>
</g>
</svg>
