<?xml version="1.0" encoding="utf-8"?>
<!-- Generator: Adobe Illustrator 26.3.1, SVG Export Plug-In . SVG Version: 6.00 Build 0)  -->
<svg version="1.1" id="Layer_1" xmlns="http://www.w3.org/2000/svg" xmlns:xlink="http://www.w3.org/1999/xlink" x="0px" y="0px"
	 viewBox="0 0 900 600" style="enable-background:new 0 0 900 600;" xml:space="preserve">
<style type="text/css">
	.st0{fill:none;}
	.st1{fill:#C4B5FD;stroke:#FFFFFF;stroke-width:2;stroke-miterlimit:10;}
	.st2{fill:#5EEAD4;stroke:#FFFFFF;stroke-width:2;stroke-miterlimit:10;}
	.st3{fill:#C4B5FD;stroke:#FFFFFF;stroke-width:2;stroke-miterlimit:10.0003;}
	.st4{fill:#917E33;}
	.st5{fill:#F8AE9D;}
	.st6{fill:#FFFFFF;}
	.st7{fill:none;stroke:#FFFFFF;stroke-width:1.376;stroke-linecap:round;stroke-miterlimit:10;}
	.st8{fill-rule:evenodd;clip-rule:evenodd;fill:#F8AE9D;}
	.st9{fill-rule:evenodd;clip-rule:evenodd;fill:#FFFFFF;}
	.st10{fill:#5EEAD4;stroke:#FFFFFF;stroke-width:1.5;stroke-miterlimit:10;}
	.st11{fill-rule:evenodd;clip-rule:evenodd;fill:#5EEAD4;stroke:#FFFFFF;stroke-miterlimit:10;}
	.st12{fill-rule:evenodd;clip-rule:evenodd;fill:#E1E4E5;}
	.st13{fill:#E1E4E5;}
</style>
<g>
	<path class="st0" d="M0,0h900v600H0V0z"/>
	<path class="st1" d="M162.1,111.2h259.5c11,0,20,9,20,20v259.5c0,11-9,20-20,20H162.1c-11,0-20-9-20-20V131.2
		C142.1,120.1,151.1,111.2,162.1,111.2z"/>
	<circle class="st2" cx="291.2" cy="415.5" r="40.9"/>
	<ellipse class="st3" cx="122.1" cy="272.1" rx="40.9" ry="40.9"/>
	<circle class="st2" cx="452" cy="208.4" r="40.9"/>
	<path class="st4" d="M304,66.5c0,0-24.9-4-31.5,39.9c-7.4,48.8-27.2,40.8-58.7,80.4c-18.4,23.1,1,64,40.3,63.2s74.8-12.2,97.4-7.3
		c22.6,4.9,23.9-53.1,1.5-70.9c-22.3-17.9,25.3-69.2-3.7-92C320.4,56.9,304,66.5,304,66.5L304,66.5z"/>
	<path class="st4" d="M155.5,260c-2.3-4.7-2.1-10.1-1.3-15.1c3.5-21.7,18.7-39.8,36.1-53.1c17.5-13.3,37.5-22.8,55.8-34.7
		c4.8-3.1,9.6-6.5,15-8.1c5.5-1.7,11.8-1.5,16.4,2c3.2,2.5,5,6.3,6.1,10.1c2.4,8.4,1.5,17.3,0,25.8c-1.8,10.7-4.4,21.4-8.8,31.2
		c-3.5,8-9.1,16.2-17.6,17.7c-2.5,9.5-7.5,18.4-14.6,25.2c-8.1,7.8-18.4,12.9-29.1,16.5c-9.8,3.3-20.6,5.5-30.5,2.4
		c-5.9-1.8-11-5.2-16.1-8.8C162.6,268.3,157.9,265,155.5,260L155.5,260z M244.3,245.6l5.8-9.2c-1.2,0.1-2.4,0.4-3.6,0.8
		C243.3,238.6,241.4,243.6,244.3,245.6z"/>
	<path class="st5" d="M351.8,105.1c0.3,1.6,0.4,3.3,0.2,5.3c-0.7,11.4-3.1,22.6-7.2,33.2c-2.5,6.3-5.6,12.5-10,17.7
		c-1.8,2.2-3.9,4.2-6.6,4.9c-2.8,0.8-6.3,0.9-9,0.2c-2.4,10-1.4,29,7.3,36.1c2.6,2.2,5.8,3.5,8.9,4.7c6.1,2.4,12.5,4.2,18.9,5.6
		c7.3,1.6,15.2,2.8,20.4,8.1c0.6,0.7,1.3,1.6,1,2.5c-0.2,0.6-0.6,1-1.1,1.3c-4,3.3-9,5.1-14,6.8c-8.7,3-17.7,5.4-26.8,7.1
		c-9.5,1.7-19.4,2.5-29,1.5c-7.5-0.8-14.8-2.7-21.6-6.1c-7.1-3.5-14.4-6.4-21.7-9.8c-6.2-2.9-12.3-6.1-19.1-7.3
		c3.2-6,9.8-9.4,16.4-11c6.6-1.5,13.5-1.7,20.2-2.9c2.2-0.5,4.4-1,6.3-2.3c5.2-3.7,3.8-12,3.8-17.5l0.3-17.2
		c-0.8-8.2-4.2-15.1-7.1-22.6c-4.5-11.5-5.5-24.6-1.5-36.4c4-11.7,13.1-21.9,24.8-26c11.7-4.1,25.7-1.8,34.7,6.8
		C345.9,93.1,350.6,98,351.8,105.1L351.8,105.1z"/>
	<path class="st4" d="M315.9,68.5c11.6-1.3,22.2,4.4,30.1,13.2c6.6,7.4,10.5,17.2,10.3,27c0,1.4-0.2,2.9-1,4.2
		c-2.1,3-6.7,1.9-10.1,0.6c-5.6-2.2-9.7-5.3-14.8-8c-5.1-2.7-11.2-2.3-15.7-5.9c-4.3-3.5-18.9-11-19.3-16.7
		c-0.5-7,12.4-12.8,17.8-13.9C314,68.7,314.9,68.6,315.9,68.5L315.9,68.5z"/>
	<path class="st4" d="M282.4,84.4c-9.8,6.3-14.5,17.5-15,29.3c-0.4,9.9,2.7,20,9.1,27.5c0.9,1.1,2,2.2,3.4,2.6
		c3.5,1,6.4-2.7,8.2-5.9c3-5.2,4.2-10.3,6.4-15.5c2.2-5.2,7.2-8.8,8.4-14.5c1.1-5.4,7.7-20.5,4.4-25.2c-4.1-5.8-17.7-2.1-22.6,0.4
		C284,83.4,283.2,83.9,282.4,84.4L282.4,84.4z"/>
	<path class="st6" d="M369.9,218.4c1.6-0.7,3.4-0.2,4.5,1.2c11.6,16.3,16.1,36.6,20,56.3c4.5,22.3,8.4,44.7,12.2,67.1
		c0.2,1.1,0.4,2.4-0.1,3.4s-1.6,1.6-2.7,2.1c-6.7,3.2-13.5,6.4-20.2,9.6c-7.2-16.4-12.5-33.8-15.5-51.5c-4.3,10.9-12.1,20.4-22,26.6
		c7.4,10.6,15.8,30.1,24.7,39.4c1.2,3.3-0.6,0.6-3.7,0.6c-5,0.7-4.9-0.5-9.2-0.6c-6.2-0.7-8.3-0.3-14.6,0.4
		c-10.4,1.1-20.5,4.4-29.8,9.3c-4.6,2.4-9,5.2-13.2,8.3c-3.6,2.7-12.6,9.1-12.6,9.1c-0.7,0.5-3.7-0.2-4.5-0.4
		c-2.1-0.4-4.3-0.6-6.4-0.8c-5.4-0.4-10.8-1.1-16.1-2.1c-10.6-1.9-21-5-31.1-9.1c-1-0.7,2.5-7.8,2.7-9.2c-0.2,1.3-19.9-0.3-21.8-0.7
		c-7.8-1.6-15.6-2.4-23.4-4.1c3.5-31.3,13-61.5,22.4-91.5c3.7-11.8,7.4-23.6,12.6-34.7c5.5-11.9,12.7-23,21.3-32.8
		c0.2-0.2,0.7-0.4,1-0.3c4.1,1,29.3,7.5,41.8,12.2c6.4,2.5,12.8,4.7,19.4,6.9c2.6,0.9,5.3,1.7,7.9,1.7c1.8-0.1,3.6-0.4,5.3-0.8
		C336.3,229.8,353.7,225.6,369.9,218.4L369.9,218.4z"/>
	<path class="st7" d="M256.4,280.8c-0.7,4.5-1.7,9-2.6,13.4c-2.3,10.1-5.3,20-9,29.8c-1.9,4.8-3.8,9.6-6,14.4
		c-1.1,2.3-2.2,4.7-3.4,7c-0.6,1.1-1.2,2.3-1.8,3.5c-0.5,1-1.1,1.9-1.6,2.7c3.5-0.1,20.7,0.9,24.3,1.2 M361.6,279.9
		c2.3,9.8,3.9,19.7,5,29.9"/>
	<path class="st2" d="M451.6,530.8h259.5c11,0,20-9,20-20V251.3c0-11-9-20-20-20H451.6c-11,0-20,9-20,20v259.5
		C431.6,521.8,440.6,530.8,451.6,530.8z"/>
	<circle class="st1" cx="580.7" cy="226.5" r="40.9"/>
	<circle class="st1" cx="411.5" cy="369.9" r="40.9"/>
	<circle class="st1" cx="741.5" cy="433.6" r="40.9"/>
	<path class="st4" d="M608,194c1.2,4.7-0.4,9.7-3,13.8c-1.8,2.9-4.4-0.3-8.1-0.8c-5.8-0.8-9.5-6.9-10.7-21.9
		c-0.6-10.9-0.3-16.3,0.3-17.3c2.2-3.4,7.7-4.5,12.1-4.2"/>
	<path class="st8" d="M456.5,247.1c0,0,4.1-22.7,2.6-27.2c-1.2-4-13-9.7-13-9.7s-20.5-32.4-25-29.1c-3.7,2.7,10.7,26.6,10.7,26.6
		s-13.1,13.7-12.9,19.9c0.2,6.1,21.3,25.3,21.3,25.3L456.5,247.1z M667.5,252.4c0,0-13.5-3.2-14-25.3s-0.1-29.7-0.1-29.7l-32-0.5
		c0,0-0.3,24.7-0.3,33.6c0,19.4-14.4,24.7-14.4,24.7s1.2,21.3,28.2,22.8C655.8,279.1,667.5,252.4,667.5,252.4L667.5,252.4z"/>
	<path class="st8" d="M656.3,186.2c13.3-0.5,11.1,18.9-2.7,18.9c0,0-14.8,29.8-38.1,29.9c-11.2,0-14.9-10-18.2-17
		c-3.4-7-5.8-17.5-6-23.9c-0.2-6.8-0.2-29.3-0.2-29.3h65.8L656.3,186.2L656.3,186.2z"/>
	<path class="st9" d="M606,253.8c0,0-34.5,10.8-42.8,23.6c-26.8,23.5-60.3,55.9-60.3,55.9s-31.9-80.1-42.4-89.2
		c-7.1-6.2-21.4,1.5-24,9.4c-3.4,10.2,18.5,70,28.8,98.3l0,0c2,5.5,3.6,9.8,4.4,12.3c6.3,18.3,21.6,28.7,40.3,17.1
		c7.5-4.7,29.9-20,49-33.9c0.3,14.6,0.8,30,1.3,44.6l0,0c1.2,35.5,2.2,66.5-0.3,70.5c-12,19.9,4,33.6,56.9,38.6
		c53,5,100,0.9,91.4-25.7c-1.8-5.5-1.8-17.5-0.9-33c5.2-0.3,10.4-0.6,15.6-1c22.1-1.7,38.5-11.2,40.7-35.9
		c1.6-17.3-31.3-98.4-43.7-125.1c-2.9-6.2-7.4-10.1-12.4-12.1c-1.2-1.3-2.5-2.2-4-2.7c-9.1-3-41.6-16.6-41.6-16.6l-38.7,25.3
		L606,253.8L606,253.8z M711,396.6l0.1,0.2H711V396.6z"/>
	<path class="st8" d="M625.2,418c0,0-11.8-2.4-16.6-6.2c-4.8-3.8-19.4-6.5-19.4-6.5l4.7,9.8c0,0-35.8-3.4-36.7,0.2
		c-0.8,3.5,9.5,7.4,9.5,7.4s5.1,9.5,10.1,15.1c4.7,5.2,27.9,4.6,36.1,1.3c7-2.8,14.7-1.4,14.7-1.4L625.2,418L625.2,418z"/>
	<path class="st4" d="M652.7,165.6c-1.9,2.5-5.4,3.1-8.2,3.6c-3.8,0.7-5.7,2.1-7.6,5.9c-1.2,2.4-2.5,5.1-4.7,6.4
		c-1.8,1.1-1.8-1.6-2-3.7c0-0.2-0.1-0.4-0.1-0.6c-0.4-1.7-2.2-1.4-2.7,0.3c-0.5,1.5-1.5,2.8-2.8,3.5c-0.2,0.1-0.4,0.2-0.7,0.2
		s-0.5-0.3-0.7-0.6c-0.4-0.5-0.8-1.2-1.2-1.9c-1.4-2.4-4-1.5-5.6,0.7c-1,1.4-2.1,2.9-3.7,3.2c-0.5,0.1-1.2,0-1.4-0.5
		c-0.3-0.6,0.2-1.2,0.1-1.9c-0.1-0.6-0.3-0.8-0.6-1.4c-1.1-1.9-3.6-2-5.1-0.4c-1.1,1.1-2.2,2.2-3.3,3.2c-0.5,0.4-1.2,0.9-1.7,0.4
		c-0.3-0.2-0.3-0.6-0.4-1c-0.3-1.8-0.5-3.6-0.8-5.5c-0.2-1-0.7-2.4-1.6-2.1c-0.4,0.1-0.7,0.6-1,1c-0.3,0.5-5.7,6.8-5.8,6.3
		c-0.8-3.5-2.6-6.7-3.4-10.3c-5.4-22.7,18.7-41,37-41.1c4.1,0,7.8,0,11.8,1c4.2,1,8.7,2.7,12.5,5c5.4,3.2,9.5,9.1,8.4,16.1"/>
	<path class="st4" d="M637.7,158.3c-2.6,3-3.3,7.1-3.5,11.1c-0.4,5.9,0.1,12.1,2.8,17.4c0.8,1.5,1.3,8.9,2.5,8.5
		c0.4-0.1,0.3-5.9,1.3-9c1.6-4.8,8.7-6.7,11.9-3.6c5.1,4.8,2.1,10.7,0.4,14.4c-1,2.2-2.6,4.7-2.9,7c-0.3,3-0.4,13.9,1.5,16.4
		c1.6,2.1,3.3-8.2,4.8-10.2c13.6-9.1,21.2-53.6,2.7-62c-2.8-1.3-11.5-1.9-14.1-0.3"/>
	<path class="st10" d="M751,124.7l20,11.2l1.4,4.8l-2.6,5.8c-3.8,1.3-12.1,3.8-15,3.6s-6.7,2.6-8.2,4c-0.5,3.1-1.6,9.5-1.8,11
		c-0.2,1.4-3,8.7-4.4,12.2h-9.8l-3.6-8L709.6,128l-3.8-14.8l2.6-4l12.8,5.6L751,124.7L751,124.7z"/>
	<path class="st11" d="M714.3,105.6c-8.2-3.4-16.4,4.8-13,13l23.5,56.4c4.6,11,20.7,9.2,22.7-2.6l2.9-17.6l17.6-2.9
		c11.8-2,13.6-18.1,2.6-22.7L714.3,105.6L714.3,105.6z M708.6,115.5c-0.7-1.6,1-3.3,2.6-2.6l56.4,23.5c3.7,1.5,3.1,6.9-0.9,7.6
		l-17.6,2.9c-3.3,0.6-6,3.2-6.5,6.5l-2.9,17.6c-0.7,3.9-6,4.5-7.6,0.9L708.6,115.5L708.6,115.5z"/>
	<path class="st12" d="M144.2,498.1h5.8c1.4,0,2.5,1.1,2.5,2.5v5.8c0,1.4-1.1,2.5-2.5,2.5h-5.8c-1.4,0-2.5-1.1-2.5-2.5v-5.8
		C141.7,499.2,142.8,498.1,144.2,498.1z M164.2,498.1h5.8c1.4,0,2.5,1.1,2.5,2.5v5.8c0,1.4-1.1,2.5-2.5,2.5h-5.8
		c-1.4,0-2.5-1.1-2.5-2.5v-5.8C161.7,499.2,162.9,498.1,164.2,498.1z M184.3,498.1h5.8c1.4,0,2.5,1.1,2.5,2.5v5.8
		c0,1.4-1.1,2.5-2.5,2.5h-5.8c-1.4,0-2.5-1.1-2.5-2.5v-5.8C181.7,499.2,182.9,498.1,184.3,498.1z M204.3,498.1h5.8
		c1.4,0,2.5,1.1,2.5,2.5v5.8c0,1.4-1.1,2.5-2.5,2.5h-5.8c-1.4,0-2.5-1.1-2.5-2.5v-5.8C201.8,499.2,202.9,498.1,204.3,498.1z
		 M224.3,498.1h5.8c1.4,0,2.5,1.1,2.5,2.5v5.8c0,1.4-1.1,2.5-2.5,2.5l0,0h-5.8c-1.4,0-2.5-1.1-2.5-2.5v-5.8
		C221.8,499.2,222.9,498.1,224.3,498.1z M165,519.9h5.8c1.4,0,2.5,1.1,2.5,2.5v5.8c0,1.4-1.1,2.5-2.5,2.5H165
		c-1.4,0-2.5-1.1-2.5-2.5v-5.8C162.5,521.1,163.6,519.9,165,519.9L165,519.9z M185,519.9h5.8c1.4,0,2.5,1.1,2.5,2.5v5.8
		c0,1.4-1.1,2.5-2.5,2.5H185c-1.4,0-2.5-1.1-2.5-2.5v-5.8C182.5,521.1,183.6,519.9,185,519.9L185,519.9z M205,519.9h5.8
		c1.4,0,2.5,1.1,2.5,2.5v5.8c0,1.4-1.1,2.5-2.5,2.5H205c-1.4,0-2.5-1.1-2.5-2.5v-5.8C202.5,521.1,203.6,519.9,205,519.9z
		 M184.3,474.7h5.8c1.4,0,2.5,1.1,2.5,2.5v5.8c0,1.4-1.1,2.5-2.5,2.5h-5.8c-1.4,0-2.5-1.1-2.5-2.5v-5.8
		C181.7,475.8,182.9,474.7,184.3,474.7z M164.3,474.7h5.8c1.4,0,2.5,1.1,2.5,2.5v5.8c0,1.4-1.1,2.5-2.5,2.5h-5.8
		c-1.4,0-2.5-1.1-2.5-2.5v-5.8C161.7,475.8,162.9,474.7,164.3,474.7z M204.3,474.7h5.8c1.4,0,2.5,1.1,2.5,2.5v5.8
		c0,1.4-1.1,2.5-2.5,2.5h-5.8c-1.4,0-2.5-1.1-2.5-2.5v-5.8C201.8,475.8,202.9,474.7,204.3,474.7z"/>
	<circle class="st10" cx="111.3" cy="151.5" r="10.5"/>
	<circle class="st10" cx="794.1" cy="258.3" r="9.5"/>
	<circle class="st13" cx="361.5" cy="453.6" r="12.2"/>
	<circle class="st13" cx="306.1" cy="530.6" r="8.4"/>
	<circle class="st13" cx="223.6" cy="77.8" r="13.4"/>
	<circle class="st13" cx="565.1" cy="96.1" r="14.9"/>
	<circle class="st13" cx="96.4" cy="417.4" r="13.4"/>
	<ellipse class="st13" cx="771.2" cy="322.2" rx="11.2" ry="11"/>
	<circle class="st13" cx="662.6" cy="90.4" r="14"/>
	<path class="st13" d="M801.9,365.1h0.3c1.5,21,17.3,21.4,17.3,21.4s-17.4,0.3-17.4,24.6c0-24.3-17.4-24.6-17.4-24.6
		S800.4,386.1,801.9,365.1L801.9,365.1z M514.7,137.3h0.3c1.9,27.3,21.8,27.7,21.8,27.7s-21.9,0.4-21.9,32c0-31.5-21.9-32-21.9-32
		S512.8,164.6,514.7,137.3L514.7,137.3z"/>
</g>
</svg>
