<?xml version="1.0" encoding="utf-8"?>
<!-- Generator: Adobe Illustrator 26.3.1, SVG Export Plug-In . SVG Version: 6.00 Build 0)  -->
<svg version="1.1" id="Layer_1" xmlns="http://www.w3.org/2000/svg" xmlns:xlink="http://www.w3.org/1999/xlink" x="0px" y="0px"
	 viewBox="0 0 900 600" style="enable-background:new 0 0 900 600;" xml:space="preserve">
<style type="text/css">
	.st0{fill:none;}
	.st1{fill-rule:evenodd;clip-rule:evenodd;fill:#FFFFFF;stroke:#E1E4E5;stroke-width:4;}
	.st2{fill:none;stroke:#E1E4E5;stroke-width:4;stroke-linecap:round;stroke-linejoin:round;}
	.st3{fill-rule:evenodd;clip-rule:evenodd;fill:#FFFFFF;}
	.st4{fill:#E1E4E5;}
	
		.st5{fill-rule:evenodd;clip-rule:evenodd;fill:#5EEAD4;stroke:#5EEAD4;stroke-width:28.37;stroke-linecap:round;stroke-linejoin:round;}
	.st6{fill:none;stroke:#FFFFFF;stroke-width:48.242;stroke-linecap:round;stroke-linejoin:round;}
	.st7{fill:#F8AE9D;}
	.st8{fill:#4F39A0;}
	.st9{fill:#C4B5FD;}
</style>
<g>
	<path class="st0" d="M0,0h900v600H0V0z"/>
	<path class="st1" d="M484,144c0,22.1-17.9,40-40,40c-22.1,0-40-17.9-40-40c0-22.1,17.9-40,40-40C466.1,104,484,121.9,484,144z
		 M743.1,223.8c14.1,0,7.5-22.4-10.4-17c-1-31.1-51.6-53.8-72.6-11.9c-5.9-4.7-19.2,4.2-16.3,11.9c-6.6,0.6-11.8,1.3-15.8,2.3
		c-9.3,2.3-7.5,14.6,2.1,14.5L743.1,223.8L743.1,223.8z M477.2,223.8c-13.3,0-7.1-21.2,9.8-16.1c0.9-29.4,48.8-50.9,68.6-11.2
		c5.6-4.4,18.2,3.9,15.4,11.2c6.2,0.5,11.1,1.2,14.9,2.2c8.8,2.2,7,13.8-2,13.7L477.2,223.8L477.2,223.8z M639.4,146.3
		c-6.4,0-3.4-10.1,4.7-7.7c0.4-14,23.3-24.2,32.7-5.4c2.7-2.1,8.7,1.9,7.3,5.4c3,0.3,5.3,0.6,7.1,1.1c4.2,1,3.4,6.6-1,6.5
		L639.4,146.3L639.4,146.3z M583.4,183.5h36.2c3.2,0,4.6-4.2,2-6.1l-0.1-0.1c-3.8-2.6-8.7-2.4-8.7-2.4s-0.7-14-14-14
		c-12,0-16.9,11.8-18.6,18.3C579.5,181.5,581.2,183.5,583.4,183.5L583.4,183.5z M189.4,222.5h-40c-3.2,0-4.6-4.2-2-6.1l0.1-0.1
		c3.8-2.6,8.7-2.4,8.7-2.4s0.7-14,14-14c6.6,0,11.9,11.3,11.9,11.3s9,0,10.4,7.1C193.1,220.5,191.6,222.5,189.4,222.5L189.4,222.5z
		 M245.8,226h159.7c15,0,14.3-12.4,9.4-16.7c-5-4.4-14.9-2.6-14.9-2.6s-3-8.3-12.7-12.4c-8.6-3.6-17.6-1.9-17.6-1.9s0-5.7-5.5-10.5
		c-5.5-4.7-12.8-4.3-12.8-4.3s-5-31.6-38.8-31.6c-33.7,0-37.6,29.7-37.6,29.7s-7.6,0-13.1,5.1c-5.5,5.1-6.2,10.8-6.2,10.8
		s-18.4-2.5-23.9,13.5C228.6,214.6,235.2,226,245.8,226L245.8,226z M188.6,161.1h50.1c4.7,0,4.5-3.9,2.9-5.2
		c-1.6-1.4-4.7-0.8-4.7-0.8s-0.9-2.6-4-3.9c-2.7-1.1-5.5-0.6-5.5-0.6s0-1.8-1.7-3.3s-4-1.3-4-1.3s-1.6-9.9-12.1-9.9
		s-11.8,9.3-11.8,9.3s-2.4,0-4.1,1.6c-1.7,1.6-1.9,3.4-1.9,3.4s-5.8-0.8-7.5,4.2C183.2,157.5,185.3,161.1,188.6,161.1L188.6,161.1z"
		/>
	<path class="st2" d="M391.7,491.8V383 M504.6,491.8V383"/>
	<path class="st1" d="M372.9,430.1h150.4v-17.4H372.9V430.1z M372.9,404.8h150.4v-18.5H372.9V404.8z"/>
	<path class="st3" d="M358.1,458.1h180v-13.2h-180V458.1z"/>
	<path class="st1" d="M358.1,458.1h180v-13.2h-180V458.1z"/>
	<path class="st4" d="M725.2,502c-24.4,0.4-30.9,2.3-56.2,1.6c-12.1,0.1-25-0.2-36.8-0.4c-5.6-1.4-15.5,0-22.1-1.2l-2.6,0.8
		c-2.3-0.4-5-0.7-7.3-0.2l0.2,0.2c-3.4-0.6-7.3-0.2-8.9-0.6l0.2,0.2l-4.1-0.1l0.7,0.3c-6-0.7-12.1-0.7-17.5-0.4l0.5-1
		c-11.6,1.1-15.8-0.9-26.2,0.3l0.2,0.2c-13.2-2.6-20.8,1.8-34.4-0.7c1.7,0.3-0.7,0.4-0.6,0.8c-6.3-0.2-12.9-0.4-13-2.3
		c-4.6,0-3.7,0.6-4.3,1.3c0-0.8-3.9-1.2-7.5-1.2l1.6,0.3l-10.2-0.3l2-1.6c-5.4,0.4-1.4,1.9-6.5,1.6l0.1-1.3
		c-7.5,0.2-11.9,2.2-19.1,3.2c-30.1,0.6-62.4-2.8-90.4-0.4l-1.2,1c-0.5,1.4-7.7-2.1-8.8-0.8l-3.2-0.7c-0.9,0.2-2.9,0.6-1.2,0.9
		c-3,0.1-3.1-0.2-5.3-0.6l-3.2,0.9c-11.9,0.7-22-1-34.5-0.7c-15,1.8-43.3,0.1-59.6-0.8c-22.9-2.1-49.5,3.6-73,1.1
		c-0.8,0.2-2.7-0.2-2.7-0.4l-21.5,0.2c0,0-104,0.6-25-11.3l-0.5-0.3c11.8-0.8,19.1-0.9,27.2,0.7c1.3-1.9,9.6-0.2,12.4-0.8l-0.3-0.1
		c7.2,1.4,14.7-1.2,21.7,0.1c-0.3-0.1-0.4-0.7-2-0.7c5,0.2,11.9,0.7,12.3-0.4c12,0.3,28.8-0.2,36.5,1.6l-0.5-0.3
		c4.4,1.2,5.7,0.2,10.6,0.8c0.3-0.1,0.6-0.2,0.5-0.3c4.8,1.2,14,0.2,17.8,0.7l0.2-0.8l9.5,0.2l-3.6,0.1c1.2,2,7.2-1.3,14.1,0
		c6.5-0.2,13.1,4.2,19.8,3.2c3.2,1-2.8-1.6,2-0.8c0.2-1.1-2.2-0.7-1-1.6c4.7,0.6,7.7-1.1,13.5-0.3l0.2-0.8
		c7.5,1.6,14.2-1.1,19.3,0.3c7.8,0.7,5.2-2.4,13.3-0.9l3.2-1.1c3.5-0.2,2.5,1.3,6.3,0.8c-0.2-0.7,4.9-0.6,2.6-1.2
		c8.7-1.1,17.7,1.6,29.2-0.3c2.5,1.3,8.3,0.6,10.1,1.6c0.3-0.6,11.6-0.1,5.1-1.4c-0.5-0.1-1.5-0.1-1.5,0.1l-0.8-0.8
		c6.5-1.6,11.9,0.9,18.4,0.6c-1.9,0.2-4.5,0.2-2.8,0.8l6-0.1l-1.2-0.7l9-0.4l-1.2,0.9c4.4-0.4,5.9-1.9,10.9-0.7
		c2.2,0.7-4.1,1.1,0.5,1.4c5.9-0.6,14.7-1.4,22.1-1.7c-0.7,1,1.3,0.9,3.4,1.1l0.2-0.8c7.9,1.1,2.9-1.8,10.8-0.9l-0.7-0.6l2.1,1.8
		c7.1,1.7,3.8-1.7,11.7,0.6c-3.1-0.1-1.5,1.8,2.4,1.4l-1-0.8c2.1,0.2,2.8,0.6,4.3,0.3c-1.3-0.4-0.7-1.1,2.5-1l-2.1-1l5.9,1.4
		c4.6-0.9,11.8,0.2,13.7-0.9c0,0,9.8-0.6,12.1,0.7c-2-0.8,3.4-1.1,1.9-2c2.6,0.9,10.1,1.6,13.1,0.7l-0.6-0.1c11.1-1,19,1.3,29,0.1
		c-0.5,1,4.8,0.4,3.5,1.7c10.3,1.2,18.8-2.6,22.6,1.3c4.7,0.2,5.6-0.9,8-1.1l-1.1-0.2c8.8,0.3,11.4,0.3,17.9,0.2
		c3.2,0.3,3.8,2.1,9.6,1.7c-1.9-0.7,0.5-0.6,2.7-0.6c-1.4-0.1-1.8-0.3,1-0.9c0.4,0.2,1,0.3,1.6,0.4c0,0,0.2-0.1,0.1-0.2
		c3.6,0.2,3,0.4,1.3,0.6c0.1,0.1,0,0.2-0.6,0.4c3.8-0.9,10.6,0.1,11-1.1c11,0.3,18.8,1.6,28,2c1-0.7-1.1-1.2-3.8-1.4l6.5,0.2
		c0-0.9-3.7-0.6-5.7-0.7c7.7-1.4,15.9,1.4,25,0.1l1.9,0.7l0.5-0.1c0,0.3,2,0.9,3.3,1c1.3-0.8-0.1-1.8,4.4-1.8
		c3.6-0.8,10.1,0.3,14.7,0.8c-2.5,0.1-1.7,0.6-0.6,0.9c2.2,0,3.5-0.8,5.3-0.4l0.2-1c-0.9,1,5.8,1.1,6.7,1.4c1.3-0.8-3.5-0.7-4-1.2
		c9,0.1,4.5,0,13.5,0.1c4.8,0.8-0.9,1,1.4,1.9c4.2,0.2,8.4,0.9,13.2,0.3l-1.5,0.9c8,0.8,12.7,0.7,18.1-0.3
		c59.3,7.6,12.5,10.3,12.5,10.3C765,505.4,753,502.8,725.2,502L725.2,502z"/>
	<path class="st4" d="M738.4,508.2c-25.6,1-32.3,5.4-58.9,3.6c-12.6,0.3-26.1-0.5-38.5-1c-5.9-3.4-16.2,0-23.2-2.8l-2.7,1.8
		c-2.4-1-5.2-1.6-7.6-0.5l0.2,0.5c-3.6-1.3-7.6-0.5-9.4-1.3l0.2,0.5l-4.3-0.3l0.7,0.8c-6.2-1.6-12.6-1.6-18.3-1l0.5-2.3
		c-12.1,2.6-16.5-2.1-27.4,0.8l0.2,0.5c-13.8-5.9-21.8,4.1-36-1.6c1.8,0.8-0.8,1-0.6,1.8c-6.6-0.5-13.5-1-13.7-5.4
		c-4.8,0-3.9,1.3-4.5,3.1c0-1.8-4.1-2.8-7.9-2.8l1.7,0.8l-10.7-0.8l2.1-3.6c-5.7,1-1.5,4.4-6.9,3.6l0.1-3.1
		c-7.8,0.5-12.4,5.2-20,7.5c-31.5,1.3-65.4-6.5-94.7-1l-1.3,2.3c-0.6,3.4-8.1-4.9-9.2-1.8l-3.4-1.6c-1,0.5-3,1.3-1.3,2.1
		c-3.2,0.3-3.2-0.5-5.5-1.3l-3.4,2.1c-12.4,1.6-23-2.3-36.1-1.6c-15.7,4.1-45.4,0.3-62.4-1.8c-24-4.9-51.9,8.3-76.4,2.6
		c-0.8,0.5-2.9-0.5-2.8-1l-22.5,0.5c0,0-109,1.3-26.2-26.4l-0.6-0.8c12.3-1.8,20.1-2.1,28.5,1.6c1.3-4.4,10.1-0.5,13-1.8l-0.3-0.3
		c7.5,3.4,15.4-2.8,22.7,0.3c-0.3-0.3-0.4-1.6-2.1-1.6c5.3,0.5,12.5,1.6,12.9-1c12.6,0.8,30.2-0.5,38.2,3.6l-0.6-0.8
		c4.6,2.8,6,0.5,11.1,1.8c0.3-0.3,0.6-0.5,0.6-0.8c5,2.8,14.6,0.5,18.6,1.6l0.2-1.8l10,0.5l-3.7,0.3c1.3,4.7,7.5-3.1,14.8,0
		c6.8-0.5,13.7,9.8,20.8,7.5c3.4,2.3-3-3.6,2.1-1.8c0.2-2.6-2.4-1.6-1.1-3.6c4.9,1.3,8.1-2.6,14.1-0.8l0.2-1.8
		c7.9,3.6,14.9-2.6,20.2,0.8c8.1,1.6,5.5-5.7,14-2.1l3.3-2.6c3.6-0.5,2.6,3.1,6.6,1.8c-0.2-1.6,5.1-1.3,2.7-2.8
		c9.1-2.6,18.5,3.6,30.6-0.8c2.6,3.1,8.7,1.3,10.6,3.6c0.3-1.3,12.1-0.3,5.4-3.4c-0.6-0.3-1.6-0.3-1.5,0.3l-0.8-1.8
		c6.9-3.6,12.4,2.1,19.3,1.3c-2,0.5-4.7,0.5-2.9,1.8l6.3-0.3l-1.3-1.6l9.4-1l-1.3,2.1c4.6-1,6.2-4.4,11.4-1.6
		c2.4,1.6-4.3,2.6,0.5,3.4c6.2-1.3,15.4-3.4,23.2-3.9c-0.7,2.3,1.4,2.1,3.6,2.6l0.2-1.8c8.3,2.6,3-4.1,11.3-2.1l-0.7-1.3l2.2,4.1
		c7.5,3.9,4-3.9,12.3,1.3c-3.3-0.3-1.5,4.1,2.5,3.4l-1-1.8c2.2,0.5,3,1.3,4.5,0.8c-1.3-1-0.7-2.6,2.6-2.3l-2.2-2.3l6.2,3.4
		c4.8-2.1,12.4,0.5,14.3-2.1c0,0,10.3-1.3,12.6,1.6c-2.1-1.8,3.6-2.6,2-4.7c2.7,2.1,10.5,3.6,13.7,1.6l-0.6-0.3
		c11.7-2.3,19.9,3.1,30.4,0.3c-0.5,2.3,5.1,1,3.7,3.9c10.8,2.8,19.7-5.9,23.7,3.1c4.9,0.5,5.8-2.1,8.4-2.6l-1.2-0.5
		c9.2,0.8,11.9,0.8,18.8,0.5c3.4,0.8,4,4.9,10.1,3.9c-2-1.6,0.5-1.3,2.8-1.3c-1.5-0.3-1.9-0.8,1.1-2.1c0.4,0.5,1.1,0.8,1.7,1
		c0,0,0.2-0.3,0.1-0.5c3.8,0.5,3.2,1,1.4,1.3c0.1,0.3,0,0.5-0.6,1c4-2.1,11.1,0.3,11.6-2.6c11.5,0.8,19.7,3.6,29.3,4.7
		c1.1-1.6-1.2-2.8-3.9-3.4l6.8,0.5c0-2.1-3.9-1.3-6-1.6c8.1-3.4,16.7,3.4,26.2,0.3l2,1.6l0.6-0.3c0,0.8,2.1,2.1,3.5,2.3
		c1.3-1.8-0.1-4.1,4.6-4.1c3.7-1.8,10.5,0.8,15.4,1.8c-2.6,0.3-1.8,1.3-0.6,2.1c2.4,0,3.7-1.8,5.5-1l0.2-2.3c-0.9,2.3,6.1,2.6,7,3.4
		c1.3-1.8-3.6-1.6-4.2-2.8c9.4,0.3,4.7,0,14.1,0.3c5,1.8-0.9,2.3,1.5,4.4c4.4,0.5,8.8,2.1,13.9,0.8l-1.6,2.1
		c8.3,1.8,13.3,1.6,18.9-0.8c62.1,17.6,13.1,24,13.1,24C780.1,516.3,767.5,510,738.4,508.2L738.4,508.2z"/>
	<path class="st4" d="M601.8,491.6c0,0-14.8-19-21-21.9c-6.6-3.1-0.9,7.6-0.9,7.6s-14.1-13.8-17.4-10.4c-3.3,3.5,0.2,6.7,0.2,6.7
		s-11.8-2.2-13.5,2.2C546.6,482.7,566,486,566,486s-9.3-2-7.4,2.2C561.4,494.5,601.8,491.6,601.8,491.6z M605.8,492.1
		c0,0,23.6,1.7,28.2-2.6c4.6-4.2,0-11.9,0-11.9s8.1-6.4,8-10.6c-0.1-4.2-5.4-2.1-5.4-2.1s8.9-11.5,6.8-13.7
		c-3.9-4.1-14.3,7.9-14.3,7.9s3.1-5.7-0.2-6.6c-4.9-1.4-8.5,12.6-8.5,12.6s0.9-5.5-2.5-4.8C612,461.8,605.8,492.1,605.8,492.1z"/>
	<path class="st3" d="M632.6,393.7c-2.4,3.5-0.8,12.1,1.8,21c-2-2.1-4.2-3.2-6.6-2.5c-6.5,1.8-0.3,13.3-0.3,13.3
		s-20.9-24.1-28.9-15.9c-4.3,4.4,13.8,27.6,13.8,27.6s-10.7-4.3-10.9,4.1c-0.1,2.6,1.4,5.6,3.5,8.5c-0.9,2.7-1.5,4.7-1.5,4.7
		s1.3-7.7-3.4-6.6c-3.3,0.7-6.6,7.4-9.4,15.3c-5.7-4.6-12.5-9-15-6.4c-4.6,4.8,0.3,9.3,0.3,9.3s-16.3-3-18.7,3.1
		c-3.2,8.3,17,12.9,22.1,13.9c-3.1-0.5-11.3-1.6-9.2,3.2c1.1,2.4,6.1,3.9,12.9,4.7l-0.1,0.5c0,0,8,0.6,16.8,0.4
		c15.1,0.2,30.2-0.9,30.2-0.9l-0.1-0.2c13.1,2.1,32.2,1.5,40.6,1.1c24.4,0.6,57.6-0.1,61.2-8.1c3.1-6.9-8.9-5.4-13.4-4.7
		c7.3-1.5,37-8.2,32.3-20.2c-3.5-8.9-27.3-4.5-27.3-4.5s7.1-6.5,0.5-13.5c-3.4-3.5-12.4,1.9-20.5,8.1c-0.9-2.2-3.1-2.3-5.1-2.5
		c-1.9-0.1-3.6-0.2-3.8-2.1c-0.5-3.3,5.6-5.1,12-7.1c7.3-2.3,15.1-4.7,14.2-9.4c-0.8-4.7-7.1-2.2-12.8,0.1c-4.9,2-9.5,3.8-10.1,0.9
		c-0.3-1.6,4.7-2.9,10.7-4.4c9-2.3,20.4-5.3,20.4-10.6c0-5.6-8.9-3.6-16.9-1.9c-4.8,1.1-9.3,2-11.1,1.2c-1.8-0.8,3.7-4.1,11.1-8.4
		c12.5-7.4,30.4-17.8,26.7-24.9c-2.9-5.6-15.7,1.4-26.5,7.4c-7,3.8-13.1,7.2-15.3,6.5c-2.7-0.9,1.8-6.2,7.9-13.6
		c6.5-7.8,14.9-17.8,18.5-27c7.2-18.5-0.4-26.9-12.8-11.6c-2.7,3.3-5.8,7.3-8.9,11.4l0,0c-11.3,14.6-23.8,30.9-25,24.6
		c-0.5-2.8,0.7-8.4,2-14.4c2.4-11.2,5.2-23.8-2.7-21.7c-17,4.6-19.8,29.6-22.5,54.7c-0.7,6.2-1.4,12.4-2.3,18.3
		c-0.1,0.9-1-1.2-2.2-4.3C645.1,401.9,638.3,385.2,632.6,393.7z"/>
	<path class="st4" d="M634.4,414.7l-1.4,1.4l3.4-2L634.4,414.7z M632.6,393.7l-1.7-1.1L632.6,393.7z M627.9,412.1l0.5,1.9
		L627.9,412.1z M627.5,425.4l-1.5,1.3l3.3-2.3L627.5,425.4L627.5,425.4z M598.7,409.5l-1.4-1.4l0,0L598.7,409.5z M612.4,437.1
		l-0.7,1.9l6.9,2.8l-4.5-5.8L612.4,437.1z M601.5,441.3l-2-0.1L601.5,441.3z M605,449.8l1.9,0.7l0.3-1l-0.6-0.8L605,449.8L605,449.8
		z M603.5,454.5l-2-0.3l3.9,0.8L603.5,454.5z M600.1,447.8l0.4,2h0L600.1,447.8L600.1,447.8z M590.7,463.2l-1.3,1.6l2.2,1.8l0.9-2.7
		L590.7,463.2L590.7,463.2z M575.7,456.8l1.4,1.4L575.7,456.8z M576,466.1l-0.4,2l6.8,1.3l-5.1-4.7L576,466.1z M557.3,469.2
		l-1.9-0.7L557.3,469.2z M579.4,483.1l-0.3,2l0.7-3.9L579.4,483.1z M570.2,486.3l1.8-0.8L570.2,486.3z M583.1,491l2,0.4l0.5-2.1
		l-2.2-0.3L583.1,491L583.1,491z M583,491.6l-2-0.4l-0.5,2.2l2.3,0.2L583,491.6z M599.8,492l0-2h-0.1L599.8,492z M630,491l0.1,2
		l3.7-0.3l-2.3-2.9L630,491L630,491z M629.9,490.9l0.3-2l-5-0.8l3.1,4L629.9,490.9z M670.4,492l0-2l-0.1,0l-0.1,0L670.4,492
		L670.4,492z M731.6,483.9l-1.8-0.8v0L731.6,483.9z M718.2,479.2l-0.4-2l0.7,3.9L718.2,479.2L718.2,479.2z M750.5,459l1.9-0.7v0
		L750.5,459L750.5,459z M723.1,454.5l-1.3-1.5l-5.2,4.7l6.9-1.3L723.1,454.5z M723.6,441l-1.4,1.4L723.6,441z M703.1,449.2l-1.8,0.8
		l1,2.4l2.1-1.6L703.1,449.2L703.1,449.2z M698.1,446.7l-0.1,2L698.1,446.7z M694.2,444.6l-2,0.3v0L694.2,444.6z M706.2,437.5
		l-0.6-1.9L706.2,437.5z M720.4,428.1l2-0.4v0L720.4,428.1z M707.6,428.3l0.7,1.9L707.6,428.3z M697.5,429.2l2-0.4L697.5,429.2z
		 M708.2,424.8l-0.5-1.9L708.2,424.8z M711.7,412.3l0.4,2L711.7,412.3z M700.6,413.5l-0.8,1.8L700.6,413.5z M711.7,405.1l1,1.7l0,0
		l0,0L711.7,405.1L711.7,405.1z M711.7,405.1l-1-1.7l0,0l0,0L711.7,405.1L711.7,405.1z M738.4,380.2l-1.8,0.9L738.4,380.2z
		 M711.9,387.6l1,1.8L711.9,387.6z M696.6,394.1L696,396L696.6,394.1z M704.5,380.5l-1.5-1.3L704.5,380.5z M723,353.5l-1.9-0.7
		L723,353.5z M710.2,341.9l-1.6-1.3L710.2,341.9z M701.3,353.2l1.6,1.2l0,0l0,0L701.3,353.2L701.3,353.2z M701.3,353.2l-1.6-1.2l0,0
		l0,0L701.3,353.2L701.3,353.2z M676.3,377.8l-2,0.4L676.3,377.8z M678.3,363.4l2,0.4L678.3,363.4z M675.6,341.7l-0.5-1.9
		L675.6,341.7z M653.1,396.4l-2-0.2l0,0.1v0.1H653.1z M653.1,396.4l2,0.2l0-0.1v-0.1H653.1z M650.8,414.7l2,0.3v0L650.8,414.7z
		 M648.6,410.4l-1.9,0.6l0,0.1l0,0.1L648.6,410.4L648.6,410.4z M648.6,410.4l1.9-0.6l0-0.1l0-0.1L648.6,410.4L648.6,410.4z
		 M636.3,414.1c-1.3-4.4-2.3-8.6-2.7-12.2c-0.2-1.8-0.2-3.3-0.1-4.5c0.1-1.3,0.4-2.1,0.8-2.6l-3.3-2.2c-0.9,1.3-1.3,2.8-1.4,4.4
		c-0.2,1.6-0.1,3.5,0.1,5.4c0.4,3.9,1.5,8.4,2.9,12.8L636.3,414.1z M628.4,414.1c1.3-0.4,2.8,0.1,4.6,2l2.9-2.8
		c-2.2-2.3-5.1-4-8.5-3.1L628.4,414.1z M627.5,425.4l1.8-1l0,0l0,0c0,0,0-0.1-0.1-0.1c0-0.1-0.1-0.2-0.2-0.3
		c-0.2-0.4-0.4-0.8-0.6-1.2c-0.5-1-1-2.4-1.3-3.8c-0.3-1.4-0.4-2.7-0.2-3.5c0.2-0.7,0.5-1.2,1.4-1.4l-1.1-3.9
		c-2.4,0.7-3.7,2.3-4.2,4.3c-0.5,1.8-0.2,3.8,0.2,5.4c0.4,1.7,1,3.3,1.5,4.5c0.3,0.6,0.5,1.1,0.7,1.4c0.1,0.2,0.2,0.3,0.2,0.4
		l0.1,0.1l0,0l0,0l0,0l0,0L627.5,425.4L627.5,425.4z M600.1,410.9c1.2-1.2,3-1.5,5.8-0.5c2.8,1,5.9,3.1,9,5.5c3,2.4,5.8,5.1,7.9,7.2
		c1.1,1.1,2.1,2.2,3.1,3.3l0.2,0.2l0,0l0,0l0,0l1.5-1.3l1.5-1.3l0,0c0,0,0,0,0,0l0-0.1c-0.3-0.3-0.6-0.7-0.9-1
		c-0.6-0.7-1.5-1.6-2.5-2.7c-2.1-2.2-5-5-8.2-7.6c-3.2-2.5-6.7-5-10.1-6.2c-3.4-1.2-7.2-1.4-10,1.5L600.1,410.9L600.1,410.9z
		 M612.4,437.1l1.6-1.2l0,0l0,0c0,0,0,0,0,0l0,0l-0.1-0.2c-0.9-1.1-1.7-2.2-2.5-3.4c-1.6-2.2-3.7-5.2-5.7-8.3c-2-3.1-3.7-6.3-4.8-9
		c-0.5-1.3-0.8-2.4-0.9-3.2c-0.1-0.8,0.1-1,0.1-0.9l-2.9-2.8c-1.1,1.2-1.3,2.7-1.2,4c0.1,1.3,0.5,2.8,1.1,4.3c1.2,3,3.1,6.4,5.1,9.6
		c2,3.2,4.2,6.3,5.8,8.6c0.8,1.2,1.7,2.3,2.6,3.5l0.2,0.2l0,0.1l0,0l0,0l0,0C610.9,438.4,610.9,438.4,612.4,437.1L612.4,437.1z
		 M603.5,441.4c0-1.6,0.6-2.3,1-2.7c0.5-0.4,1.4-0.6,2.5-0.6c1.1,0,2.3,0.2,3.2,0.5c0.5,0.1,0.9,0.3,1.4,0.4l0.1,0l0,0c0,0,0,0,0,0
		h0v0c0,0,0,0,0.7-1.9s0.7-1.9,0.7-1.9l0,0l0,0l0,0c0,0,0,0,0,0l-0.1,0c-0.6-0.2-1.1-0.4-1.7-0.5c-1.1-0.3-2.6-0.6-4.2-0.6
		c-1.6,0-3.4,0.3-5,1.4c-1.6,1.2-2.5,3.2-2.6,5.7L603.5,441.4L603.5,441.4z M606.6,448.6c-2-2.9-3.2-5.4-3.1-7.2l-4-0.1
		c-0.1,3.3,1.7,6.7,3.8,9.7L606.6,448.6L606.6,448.6z M603.5,454.5l1.9,0.5v0v0l0,0l0,0l0-0.1l0.1-0.3c0.4-1.4,0.8-2.8,1.3-4.2
		l-3.8-1.3c-0.4,1.1-0.8,2.3-1.1,3.5c-0.1,0.5-0.3,0.9-0.4,1.4l0,0l0,0v0L603.5,454.5L603.5,454.5z M600.5,449.8
		c0.3-0.1,0.5,0,0.6,0c0,0,0.1,0,0.1,0.1c0.1,0.1,0.3,0.5,0.4,1.3c0.1,0.7,0.1,1.5,0.1,2.1c0,0.3,0,0.6-0.1,0.7l0,0.2c0,0,0,0,0,0
		l0,0v0l2,0.3l2,0.3l0,0v0l0,0l0,0l0-0.1c0.1-0.4,0.1-0.8,0.1-1.3c0.1-0.8,0.1-1.9-0.1-3c-0.2-1-0.5-2.4-1.5-3.4
		c-1.1-1.2-2.7-1.6-4.4-1.2L600.5,449.8L600.5,449.8z M592.6,463.8c1.4-3.9,2.9-7.5,4.4-10.1c0.7-1.3,1.5-2.3,2.1-3
		c0.7-0.7,1.2-0.9,1.4-1l-0.8-3.9c-1.4,0.3-2.5,1.2-3.5,2.2c-1,1-1.9,2.3-2.7,3.8c-1.7,2.9-3.2,6.7-4.7,10.7L592.6,463.8
		L592.6,463.8z M577.2,458.2c0,0,0.2-0.2,0.9-0.1c0.7,0.1,1.8,0.4,3,1c2.5,1.3,5.5,3.4,8.4,5.7l2.5-3.1c-2.9-2.3-6.2-4.7-9.1-6.1
		c-1.5-0.7-3-1.3-4.4-1.4c-1.4-0.2-3,0.1-4.2,1.3L577.2,458.2z M576,466.1c1.4-1.5,1.4-1.5,1.4-1.5l0,0l0,0l0,0l0,0l0,0
		c-0.2-0.2-0.3-0.3-0.5-0.5c-0.4-0.5-0.7-1-0.9-1.5c-0.2-0.6-0.3-1.3-0.2-1.9c0.1-0.7,0.5-1.5,1.4-2.4l-2.9-2.8
		c-1.4,1.5-2.1,3-2.4,4.5c-0.3,1.5,0,2.9,0.4,4c0.4,0.9,0.9,1.8,1.5,2.6c0.3,0.3,0.5,0.6,0.8,0.9l0.1,0.1l0,0l0,0c0,0,0,0,0,0l0,0
		C574.7,467.5,574.7,467.5,576,466.1L576,466.1z M559.2,469.9c0.3-0.7,1-1.4,2.7-1.9c1.6-0.5,3.6-0.7,5.7-0.7c2.1,0,4.1,0.2,5.6,0.4
		c0.8,0.1,1.5,0.2,2.3,0.3l0.1,0l0,0l0,0l0.4-2l0.4-2l0,0h0c0,0,0,0,0,0l0,0c-0.2,0-0.5-0.1-0.7-0.1c-0.6-0.1-1.3-0.2-2-0.3
		c-1.6-0.2-3.8-0.4-6.1-0.4c-2.3,0-4.8,0.2-6.9,0.9c-2.1,0.7-4.3,1.9-5.2,4.3L559.2,469.9L559.2,469.9z M579.8,481.1
		c-2.5-0.5-8.6-1.9-13.7-4.1c-2.6-1.1-4.7-2.4-5.9-3.7c-1.2-1.2-1.4-2.3-1-3.4l-3.7-1.4c-1.2,3-0.1,5.6,1.8,7.6
		c1.8,1.9,4.5,3.4,7.2,4.6c5.5,2.4,12,3.9,14.5,4.4L579.8,481.1L579.8,481.1z M572.1,485.5c-0.3-0.8,0-0.7-0.2-0.4
		c0,0,0-0.1,0.3-0.1c0.2-0.1,0.6-0.2,1-0.2c1.8-0.2,4.4,0.1,5.9,0.4l0.7-3.9c-1.5-0.3-4.6-0.7-7.1-0.4c-1.2,0.1-2.7,0.5-3.8,1.6
		c-1.3,1.4-1.2,3.1-0.5,4.8L572.1,485.5L572.1,485.5z M583.3,489.1c-3.3-0.4-6.1-1-8.2-1.7c-1-0.4-1.8-0.7-2.3-1.1
		c-0.5-0.4-0.7-0.6-0.8-0.8l-3.7,1.6c0.5,1.1,1.3,1.9,2.2,2.5c0.9,0.6,2,1.1,3.3,1.5c2.4,0.8,5.5,1.4,9,1.8L583.3,489.1L583.3,489.1
		z M583,491.6l2,0.4v0l0,0l0,0l0-0.1l0.1-0.4l-3.9-0.8l-0.1,0.4c0,0,0,0.1,0,0.1l0,0v0h0L583,491.6L583,491.6z M599.8,490
		c-3.9,0-7.8,0-11.6-0.2c-1.2,0-2.4-0.1-3.7-0.2c-0.4,0-0.8,0-1-0.1l-0.3,0l-0.1,0l0,0h0l-0.1,2l-0.1,2h0l0,0l0,0l0.1,0l0.3,0l1,0.1
		c0.9,0.1,2.2,0.1,3.7,0.2c3.1,0.1,7.4,0.2,11.8,0.2L599.8,490L599.8,490z M630,491l-0.1-2h0c0,0,0,0,0,0l-0.1,0l-0.5,0
		c-2.9,0.2-5.8,0.4-8.7,0.5c-5.6,0.3-13.1,0.5-20.6,0.4l0,4c7.6,0.1,15.2-0.1,20.8-0.4c2.9-0.1,5.9-0.3,8.8-0.5l0.5,0l0.1,0l0,0l0,0
		h0L630,491L630,491z M628.3,492.1l0.1,0.1l0,0l0,0l0,0l0,0l1.6-1.2l1.6-1.2v0l0,0l0,0l0,0l-0.1-0.1L628.3,492.1L628.3,492.1z
		 M670.3,490c-8.4,0.4-27.2,1-40.1-1.1l-0.6,3.9c13.4,2.2,32.6,1.5,41,1.1L670.3,490L670.3,490z M729.8,483.1
		c-0.2,0.5-0.7,1.1-1.8,1.8c-1.1,0.7-2.6,1.3-4.5,1.8c-3.8,1.1-8.9,1.9-14.8,2.5c-11.7,1.1-26,1.1-38.2,0.8l-0.1,4
		c12.2,0.3,26.7,0.3,38.7-0.8c5.9-0.6,11.3-1.4,15.5-2.6c2.1-0.6,3.9-1.4,5.4-2.3c1.5-0.9,2.8-2,3.4-3.6L729.8,483.1z M718.5,481.2
		c2.2-0.4,6.1-0.9,8.9-0.5c1.5,0.2,2.2,0.6,2.5,0.8c0.1,0.1,0.1,0.2,0.1,0.3c0,0.2,0,0.6-0.3,1.3l3.7,1.6c0.5-1.1,0.7-2.1,0.7-3.2
		c-0.1-1-0.5-2-1.2-2.8c-1.3-1.4-3.2-1.9-4.9-2.1c-3.5-0.4-7.9,0.2-10.1,0.6L718.5,481.2L718.5,481.2z M748.6,459.8
		c0.8,2.1,0.3,3.9-1.6,5.9c-2,2.1-5.1,3.9-8.9,5.6c-7.5,3.3-16.6,5.3-20.2,6l0.8,3.9c3.7-0.7,13.1-2.8,21.1-6.3
		c3.9-1.7,7.7-3.9,10.2-6.5c2.6-2.7,4-6.2,2.4-10.1L748.6,459.8L748.6,459.8z M723.1,454.5l0.4,2h0l0,0l0,0l0.2,0
		c0.2,0,0.4-0.1,0.7-0.1c0.6-0.1,1.6-0.2,2.7-0.4c2.2-0.3,5.2-0.5,8.3-0.5c3.1,0,6.2,0.3,8.6,1c2.5,0.8,3.9,1.9,4.5,3.3l3.7-1.5
		c-1.2-3.1-4-4.7-7-5.6c-3-0.9-6.5-1.2-9.8-1.2c-3.3,0-6.5,0.3-8.8,0.6c-0.9,0.1-1.9,0.2-2.8,0.4c-0.3,0.1-0.6,0.1-0.8,0.1l-0.2,0
		l-0.1,0c0,0,0,0,0,0l0,0h0L723.1,454.5L723.1,454.5z M722.1,442.4c1.4,1.5,2,2.9,2.2,4c0.2,1.2,0,2.3-0.4,3.3
		c-0.4,1-0.9,1.9-1.4,2.5c-0.2,0.3-0.5,0.6-0.8,0.9l0,0l0,0l0,0l0,0c0,0,0,0,1.3,1.5c1.3,1.5,1.3,1.5,1.3,1.5l0,0l0,0
		c0.4-0.4,0.9-0.9,1.2-1.4c0.6-0.8,1.5-2,2-3.5c0.6-1.5,0.9-3.3,0.6-5.4c-0.3-2-1.4-4.1-3.3-6.1L722.1,442.4L722.1,442.4z
		 M704.4,450.8c4-3.1,8.1-5.9,11.6-7.5c1.7-0.8,3.2-1.2,4.3-1.3c1.1-0.1,1.6,0.2,1.9,0.5l2.9-2.8c-1.4-1.5-3.3-1.8-5.1-1.7
		c-1.8,0.1-3.7,0.8-5.7,1.7c-3.9,1.8-8.3,4.8-12.4,8L704.4,450.8L704.4,450.8z M697.9,448.7c1.1,0.1,1.8,0.1,2.4,0.3
		c0.5,0.2,0.8,0.4,1,0.9l3.7-1.5c-0.7-1.7-2-2.6-3.3-3.1c-1.2-0.4-2.6-0.5-3.5-0.6L697.9,448.7z M692.2,444.9
		c0.1,0.8,0.4,1.5,0.9,2.1c0.5,0.6,1.1,1,1.7,1.2c1,0.4,2.3,0.5,3.1,0.5l0.2-4c-0.4,0-0.8-0.1-1.2-0.1c-0.3,0-0.6-0.1-0.7-0.1
		c-0.1,0-0.1-0.1-0.1,0c0,0.1,0,0.1,0-0.1L692.2,444.9L692.2,444.9z M705.7,435.6c-3.2,1-6.5,2-8.9,3.2c-1.2,0.6-2.4,1.3-3.2,2.3
		c-0.9,1-1.5,2.3-1.3,3.8l4-0.6c0-0.1,0-0.2,0.3-0.6c0.4-0.4,1-0.9,2.1-1.4c2.1-1,5-2,8.3-3L705.7,435.6L705.7,435.6z M718.5,428.5
		c0.1,0.5,0,1-0.4,1.6c-0.5,0.6-1.3,1.3-2.6,1.9c-2.5,1.4-6.1,2.5-9.8,3.6l1.2,3.8c3.6-1.1,7.6-2.3,10.5-3.9c1.5-0.8,2.9-1.8,3.8-3
		c1-1.3,1.6-2.9,1.2-4.7L718.5,428.5L718.5,428.5z M708.4,430.1c3-1.2,5.7-2.3,7.8-2.6c1-0.1,1.6,0,1.9,0.1c0.1,0.1,0.3,0.2,0.5,0.8
		l3.9-0.7c-0.3-1.7-1.2-3-2.6-3.7c-1.3-0.6-2.8-0.6-4.2-0.5c-2.7,0.4-5.9,1.7-8.7,2.8L708.4,430.1L708.4,430.1z M695.5,429.6
		c0.3,1.4,1.2,2.4,2.5,2.8c1.1,0.4,2.3,0.3,3.3,0.1c2.1-0.4,4.7-1.4,7.1-2.4l-1.5-3.7c-2.5,1-4.7,1.9-6.3,2.2
		c-0.8,0.2-1.2,0.1-1.3,0.1c0,0,0.1,0,0.1,0.1c0.1,0.1,0.1,0.1,0,0L695.5,429.6L695.5,429.6z M707.7,422.8c-3,0.8-5.9,1.5-8,2.3
		c-1,0.4-2,0.8-2.8,1.3c-0.6,0.4-1.8,1.5-1.5,3.2l3.9-0.8c0.2,0.9-0.5,1.2-0.1,0.9c0.3-0.2,0.9-0.5,1.8-0.8c1.9-0.7,4.5-1.4,7.6-2.2
		L707.7,422.8L707.7,422.8z M726.6,414.1c0,0.5-0.3,1.2-1.2,2.1c-1,0.9-2.5,1.7-4.4,2.5c-3.8,1.6-8.7,2.9-13.3,4.1l1,3.9
		c4.5-1.2,9.7-2.5,13.8-4.3c2.1-0.9,4-1.9,5.4-3.2c1.4-1.3,2.6-3,2.6-5.1H726.6z M712.1,414.2c4-0.9,8-1.8,11-1.8
		c1.5,0,2.4,0.2,2.9,0.5c0.3,0.2,0.5,0.4,0.5,1.2h4c0-2-0.9-3.6-2.5-4.6c-1.4-0.9-3.2-1.1-5-1.1c-3.5,0-7.9,1-11.8,1.9L712.1,414.2
		L712.1,414.2z M699.8,415.3c0.8,0.4,1.8,0.5,2.6,0.5c0.9,0,1.9-0.1,2.9-0.2c2-0.3,4.4-0.8,6.8-1.3l-0.9-3.9c-2.4,0.5-4.7,1-6.5,1.3
		c-0.9,0.1-1.7,0.2-2.3,0.2c-0.6,0-0.9-0.1-1-0.1L699.8,415.3z M710.7,403.3c-3.7,2.1-7,4.1-9.1,5.6c-1,0.7-2,1.5-2.6,2.2
		c-0.3,0.3-0.7,1-0.7,1.9c0,1.2,0.9,1.9,1.5,2.2l1.7-3.6c0.2,0.1,0.8,0.5,0.8,1.3c0,0.6-0.3,0.8-0.1,0.7c0.2-0.2,0.7-0.7,1.7-1.4
		c2-1.4,5.1-3.2,8.9-5.4L710.7,403.3z M710.7,403.4l2.1,3.4L710.7,403.4z M736.6,381.1c0.4,0.8,0.4,2-0.8,3.8c-1.2,1.8-3.2,3.9-6,6
		c-5.4,4.3-12.9,8.7-19.2,12.4l2,3.4c6.2-3.7,14-8.2,19.6-12.7c2.8-2.3,5.3-4.6,6.8-7c1.5-2.4,2.4-5.2,1-7.8L736.6,381.1z
		 M712.9,389.3c5.5-3,11.2-6.2,16-7.9c2.4-0.9,4.3-1.3,5.7-1.3c1.3,0,1.8,0.4,2.1,1l3.6-1.8c-1.2-2.3-3.3-3.1-5.6-3.1
		c-2.1,0-4.6,0.6-7.2,1.5c-5.1,1.9-11.1,5.2-16.5,8.1L712.9,389.3L712.9,389.3z M696,396c1.1,0.4,2.4,0.1,3.5-0.2
		c1.1-0.3,2.5-0.8,3.8-1.5c2.8-1.3,6.1-3.1,9.6-5l-1.9-3.5c-3.5,1.9-6.7,3.7-9.3,4.9c-1.3,0.6-2.4,1-3.2,1.3
		c-0.9,0.3-1.2,0.2-1.2,0.2L696,396L696,396z M703,379.2c-3,3.6-5.8,6.9-7.4,9.4c-0.8,1.2-1.5,2.5-1.7,3.6c-0.1,0.6-0.1,1.4,0.3,2.2
		c0.4,0.8,1.1,1.3,1.9,1.5l1.2-3.8c0,0,0.3,0.1,0.5,0.5c0.1,0.3,0.1,0.5,0.1,0.4c0.1-0.3,0.3-1,1.1-2.2c1.5-2.2,4-5.3,7.1-9
		L703,379.2z M721.1,352.8c-3.4,8.8-11.6,18.6-18.1,26.4l3.1,2.6c6.5-7.7,15.1-18,18.8-27.6L721.1,352.8z M711.8,343.1
		c3-3.7,5.6-5.8,7.5-6.6c1.9-0.9,2.8-0.5,3.3,0c0.7,0.7,1.3,2.3,1.2,5.2c-0.1,2.9-0.9,6.6-2.6,11.1l3.7,1.4c1.8-4.8,2.8-9,2.9-12.4
		c0.1-3.3-0.6-6.4-2.4-8.2c-2.1-2-4.9-2.1-7.7-0.8c-2.7,1.2-5.8,3.8-8.9,7.8L711.8,343.1L711.8,343.1z M702.9,354.5
		c3.2-4.1,6.2-8,8.9-11.3l-3.1-2.5c-2.7,3.3-5.8,7.3-8.9,11.4L702.9,354.5z M702.9,354.5L702.9,354.5l-3.1-2.5l0,0L702.9,354.5z
		 M674.3,378.2c0.2,1.1,0.8,2.5,2.4,2.9c1.3,0.4,2.5-0.2,3.4-0.7c1.8-1,4-3.1,6.4-5.7c4.8-5.2,10.8-13,16.4-20.3l-3.2-2.4
		c-5.7,7.3-11.6,15-16.2,20c-2.3,2.6-4.2,4.2-5.4,4.9c-0.7,0.4-0.7,0.2-0.3,0.3c0.6,0.2,0.6,0.7,0.5,0.2L674.3,378.2z M676.4,363
		c-0.6,3-1.3,5.9-1.7,8.5c-0.4,2.5-0.6,4.9-0.3,6.7l3.9-0.7c-0.2-1-0.1-2.8,0.3-5.3c0.4-2.4,1-5.3,1.7-8.3L676.4,363L676.4,363z
		 M676.1,343.6c0.8-0.2,1.2-0.2,1.5-0.1c0.2,0,0.4,0.2,0.5,0.3c0.4,0.5,0.7,1.6,0.7,3.7c0,4-1.2,9.7-2.5,15.4l3.9,0.8
		c1.2-5.5,2.6-11.7,2.6-16.3c0-2.2-0.3-4.5-1.5-6.1c-0.7-0.9-1.6-1.5-2.7-1.8c-1.1-0.3-2.3-0.2-3.5,0.1L676.1,343.6z M655.1,396.6
		c1.4-12.6,2.8-24.9,5.8-34.7c3.1-9.8,7.7-16.3,15.2-18.3l-1-3.9c-9.5,2.6-14.8,10.8-18,21c-3.2,10.2-4.6,22.9-6,35.4L655.1,396.6
		L655.1,396.6z M655.1,396.4h-4H655.1z M652.8,415c0.9-5.9,1.6-12.2,2.3-18.4l-4-0.4c-0.7,6.2-1.4,12.4-2.3,18.2L652.8,415z
		 M646.7,411.1c0.6,1.6,1.2,2.9,1.6,3.8c0.1,0.2,0.2,0.4,0.3,0.6c0.1,0.2,0.3,0.4,0.5,0.7c0.1,0.1,0.4,0.3,0.7,0.5
		c0.6,0.2,1.2,0.2,1.8-0.1c0.6-0.3,0.8-0.8,0.9-1c0.1-0.2,0.2-0.5,0.2-0.6l-4-0.6c0,0,0-0.2,0.1-0.4c0.2-0.4,0.5-0.7,0.8-0.9
		c0.5-0.3,1.1-0.3,1.7-0.1c0.3,0.1,0.5,0.3,0.6,0.4c0.1,0.1,0.2,0.2,0.1,0.1c-0.1-0.1-0.1-0.2-0.2-0.4c-0.3-0.7-0.8-1.9-1.5-3.6
		L646.7,411.1L646.7,411.1z M646.7,411l3.8-1.3L646.7,411z M634.2,394.8c0.6-0.9,1.1-1.2,1.4-1.4c0.2-0.1,0.5-0.1,0.8,0
		c0.8,0.3,2,1.3,3.4,3.4c2.7,4,5.2,10,6.9,14.3l3.7-1.5c-1.7-4.2-4.3-10.7-7.3-15.1c-1.4-2.1-3.3-4.2-5.4-4.9
		c-1.2-0.4-2.5-0.4-3.7,0.2c-1.2,0.5-2.2,1.5-3,2.8L634.2,394.8L634.2,394.8z"/>
	<path class="st3" d="M310.7,443.7c8.5,9.3,5.2,56.9,5.2,56.9s-19.8-4.1-37.3-9.8c-9.9,0.7-81,5-86.2-6.9c-3.1-6.9,8.9-5.4,13.4-4.7
		c-7.4-1.5-36.9-8.2-32.3-20.2c3.5-8.9,27.3-4.5,27.3-4.5s-7.1-6.5-0.5-13.5c6.7-7,35.2,21,35.2,21s-11.6-21.7,1.8-15.4
		c1.9,0.9,4.3,2.6,6.9,4.8c2.9,0.8,5.4,2.1,5.4,2.1s-24.1-20.9-15.9-28.9c4.4-4.3,27.6,13.8,27.6,13.8s-4.3-10.7,4.1-10.9
		c8.4-0.3,21.3,16.1,21.3,16.1S302.2,434.4,310.7,443.7L310.7,443.7z"/>
	<path class="st4" d="M315.9,500.6l2,0.1l-0.2,2.3l-2.2-0.5L315.9,500.6L315.9,500.6z M310.7,443.7l-1.5,1.4L310.7,443.7z
		 M278.6,490.8l-0.1-2l0.4,0l0.4,0.1L278.6,490.8z M192.4,483.9l1.8-0.8v0L192.4,483.9z M205.8,479.2l0.4-2l-0.7,3.9L205.8,479.2z
		 M173.5,459l-1.9-0.7v0L173.5,459L173.5,459z M200.8,454.5l1.3-1.5l5.2,4.7l-6.9-1.3L200.8,454.5L200.8,454.5z M200.4,441l1.4,1.4
		L200.4,441z M235.6,462l1.8-0.9l-3.2,2.4L235.6,462z M237.3,446.6l0.9-1.8h0L237.3,446.6L237.3,446.6z M244.2,451.4l-0.5,1.9
		l-0.4-0.1l-0.3-0.3L244.2,451.4z M249.6,453.5l1.3-1.5l-2.3,3.3L249.6,453.5z M233.7,424.7l-1.4-1.4l0,0L233.7,424.7z M261.3,438.4
		l1.9-0.7l2.8,6.9l-5.8-4.5L261.3,438.4z M265.5,427.5l0.1,2L265.5,427.5z M286.8,443.6l1,1.7l-1.5,0.9l-1.1-1.4L286.8,443.6
		L286.8,443.6z M315.9,500.6l-2-0.1v0l0,0l0-0.1l0-0.4c0-0.3,0.1-0.9,0.1-1.5c0.1-1.3,0.2-3.2,0.3-5.5c0.2-4.6,0.3-10.8,0.2-17.3
		c-0.1-6.5-0.5-13.2-1.4-18.9c-0.4-2.8-1-5.3-1.7-7.4c-0.7-2.1-1.5-3.5-2.2-4.4l2.9-2.7c1.3,1.5,2.3,3.5,3.1,5.8
		c0.8,2.3,1.4,5.1,1.8,8c0.9,5.9,1.3,12.8,1.4,19.4c0.1,6.6,0,12.9-0.2,17.5c-0.1,2.4-0.2,4.7-0.4,7.1l0,0.4l0,0.1l0,0v0
		L315.9,500.6L315.9,500.6z M279.2,488.9c8.7,2.8,18,5.3,25.1,7c3.6,0.9,6.6,1.5,8.7,2c1,0.2,2.1,0.5,3.1,0.7l0.2,0c0,0,0,0,0,0l0,0
		l0,0l-0.4,2l-0.4,2h0l0,0l0,0l0,0c-0.1,0-0.1,0-0.2,0l-0.7-0.1c-0.6-0.1-1.4-0.3-2.5-0.5c-2.9-0.6-5.8-1.3-8.8-2
		c-7.2-1.7-16.5-4.2-25.4-7.1L279.2,488.9L279.2,488.9z M194.2,483.1c0.3,0.8,1.4,1.7,3.7,2.7c2.3,0.9,5.3,1.7,9.1,2.3
		c7.4,1.2,17,1.8,26.8,2c19.6,0.3,39.8-0.9,44.7-1.2l0.3,4c-5,0.3-25.3,1.6-45,1.3c-9.9-0.2-19.7-0.7-27.4-2
		c-3.8-0.6-7.3-1.5-9.9-2.6c-2.6-1.1-4.9-2.6-5.9-4.8L194.2,483.1L194.2,483.1z M205.4,481.2c-2.2-0.4-6.1-0.9-8.9-0.5
		c-1.5,0.2-2.2,0.6-2.5,0.8c-0.1,0.1-0.1,0.2-0.1,0.3c0,0.2,0,0.6,0.3,1.3l-3.7,1.6c-0.5-1.1-0.7-2.1-0.7-3.2c0.1-1,0.5-2,1.2-2.8
		c1.3-1.4,3.2-1.9,4.9-2.1c3.5-0.4,7.9,0.2,10.1,0.6L205.4,481.2L205.4,481.2z M175.4,459.8c-0.8,2.1-0.3,3.9,1.6,5.9
		c2,2.1,5.1,3.9,8.9,5.6c7.5,3.3,16.6,5.3,20.2,6l-0.8,3.9c-3.7-0.7-13.1-2.8-21.1-6.3c-3.9-1.7-7.7-3.9-10.2-6.5
		c-2.6-2.7-4-6.2-2.4-10.1L175.4,459.8L175.4,459.8z M200.8,454.5l-0.4,2h0c-0.1,0-0.2,0-0.2,0c-0.2,0-0.4-0.1-0.7-0.1
		c-0.6-0.1-1.6-0.2-2.7-0.4c-2.2-0.3-5.2-0.5-8.3-0.5c-3.1,0-6.2,0.3-8.6,1c-2.5,0.8-3.9,1.9-4.5,3.3l-3.7-1.5c1.2-3.1,4-4.7,7-5.6
		c3-0.9,6.5-1.2,9.8-1.2c3.3,0,6.5,0.3,8.8,0.6c0.9,0.1,1.9,0.2,2.8,0.4c0.3,0.1,0.6,0.1,0.8,0.1l0.2,0l0.1,0c0,0,0,0,0,0l0,0h0
		L200.8,454.5L200.8,454.5z M201.8,442.4c-1.4,1.5-2,2.9-2.2,4c-0.2,1.2,0,2.3,0.4,3.3c0.4,1,0.9,1.9,1.4,2.5
		c0.2,0.3,0.5,0.6,0.8,0.9l0,0l0,0l0,0l0,0l0,0c0,0,0,0-1.4,1.5c-0.4,0.5-0.9,1-1.4,1.5l0,0l0,0c0,0,0,0,0,0l0,0
		c-0.1-0.1-0.2-0.2-0.4-0.4c-0.3-0.3-0.6-0.6-0.8-1c-0.6-0.8-1.5-2-2-3.5c-0.6-1.5-0.9-3.3-0.6-5.4c0.3-2,1.4-4.1,3.3-6.1
		L201.8,442.4L201.8,442.4z M235.6,462l-1.4,1.4h0c0,0,1.6-1.7,0,0l-0.1-0.1l-0.2-0.2c-0.2-0.2-0.5-0.5-0.9-0.9
		c-0.8-0.7-1.9-1.8-3.3-3c-2.8-2.5-6.5-5.7-10.4-8.7c-3.9-3-8-5.8-11.4-7.3c-1.7-0.8-3.1-1.2-4.2-1.3c-1-0.1-1.6,0.2-1.9,0.5
		l-2.9-2.8c1.4-1.4,3.2-1.8,5-1.7c1.8,0.1,3.7,0.7,5.6,1.6c3.8,1.7,8.2,4.7,12.2,7.8c4,3.1,7.8,6.4,10.6,8.9c1.4,1.3,2.9,2.6,4.3,4
		l0.2,0.2l0.1,0.1l0,0l0,0l0,0C237,460.6,237,460.6,235.6,462L235.6,462z M236.5,448.4c-1.6-0.7-2.5-0.9-3.1-0.9c-0.2,0-0.3,0-0.3,0
		c0,0,0,0,0,0c0,0,0,0,0,0c0,0.1-0.2,0.4-0.2,1.2c0,0.8,0.2,1.7,0.5,2.8c0.6,2.2,1.5,4.6,2.4,6.5c0.5,1,0.9,2,1.4,3l0.1,0.2l0,0l0,0
		c0,0,0,0,0,0l-1.8,0.9c-1.8,0.9-1.8,0.9-1.8,0.9v0l0,0l0,0c0,0,0,0,0-0.1l-0.1-0.2c-0.5-1-1-2.1-1.5-3.1c-0.9-2-2-4.6-2.6-7.1
		c-0.3-1.2-0.6-2.5-0.6-3.7c0-1.1,0.1-2.5,0.9-3.5c0.8-1.2,2.2-1.8,3.7-1.8c1.4,0,3,0.5,4.7,1.3L236.5,448.4L236.5,448.4z
		 M242.9,452.9c-2.6-2.2-4.8-3.7-6.4-4.5l1.7-3.6c2.2,1,4.7,2.9,7.3,5.1L242.9,452.9L242.9,452.9z M249.6,453.5l-0.9,1.8l0,0l0,0
		l0,0l-0.1,0c-0.5-0.2-0.9-0.5-1.4-0.7c-0.9-0.4-2.2-0.9-3.5-1.3l1-3.9c1.6,0.4,3,1,4.1,1.5c0.5,0.2,1.1,0.5,1.6,0.8
		c0,0,0.1,0,0.1,0.1l0,0l0,0h0L249.6,453.5L249.6,453.5z M235.1,426.1c-1.2,1.2-1.5,3-0.5,5.8c1,2.8,3.1,5.9,5.5,9
		c2.4,3,5.1,5.8,7.2,7.9c1.1,1.1,2.2,2.1,3.3,3.1l0.2,0.2l0,0l0,0l0,0l-1.3,1.5l-1.3,1.5l0,0l0,0l0,0l-0.1,0c-0.3-0.3-0.7-0.6-1-0.9
		c-0.7-0.6-1.6-1.5-2.7-2.5c-2.2-2.1-5-5-7.6-8.2c-2.5-3.2-5-6.7-6.2-10.1c-1.2-3.4-1.4-7.2,1.5-10L235.1,426.1L235.1,426.1z
		 M261.3,438.4l-1.2,1.6l0,0l0,0c0,0,0,0,0,0l0,0l-0.2-0.1c-1.1-0.9-2.2-1.7-3.4-2.5c-2.2-1.6-5.2-3.7-8.3-5.7c-3.1-2-6.3-3.7-9-4.8
		c-1.3-0.5-2.4-0.8-3.2-0.9c-0.8-0.1-1,0.1-0.9,0.1l-2.8-2.9c1.2-1.1,2.7-1.3,4-1.2c1.3,0.1,2.8,0.5,4.3,1.1c3,1.2,6.4,3.1,9.6,5.1
		c3.2,2,6.3,4.2,8.6,5.8c1.2,0.8,2.3,1.7,3.5,2.6l0.2,0.2l0.1,0l0,0l0,0l0,0C262.6,436.9,262.6,436.9,261.3,438.4z M265.5,429.5
		c-1.6,0-2.3,0.6-2.7,1c-0.4,0.5-0.6,1.4-0.6,2.5c0,1.1,0.2,2.3,0.5,3.2c0.1,0.5,0.3,0.9,0.4,1.4l0,0.1l0,0c0,0,0,0,0,0v0l0,0
		l-1.9,0.7c-1.9,0.7-1.9,0.7-1.9,0.7l0,0l0,0l0,0c0,0,0,0,0,0l0-0.1c-0.2-0.6-0.4-1.1-0.5-1.7c-0.3-1.1-0.6-2.6-0.6-4.2
		c0-1.6,0.3-3.4,1.4-5c1.2-1.6,3.2-2.5,5.7-2.6L265.5,429.5L265.5,429.5z M286.8,443.6l-1.6,1.2l0,0c0,0,0,0,0,0l0,0l-0.1-0.1
		c-0.6-0.8-1.3-1.5-1.9-2.3c-1.7-1.9-3.4-3.7-5.2-5.5c-2.1-2-4.4-3.9-6.6-5.3c-2.3-1.4-4.3-2.2-5.8-2.1l-0.1-4
		c2.7-0.1,5.5,1.1,8,2.7c2.6,1.6,5.1,3.7,7.3,5.8c1.9,1.8,3.7,3.7,5.5,5.7c0.5,0.6,1.1,1.3,1.6,1.9c0.2,0.2,0.3,0.4,0.4,0.5l0.1,0.1
		c0,0,0,0,0,0l0,0v0C288.4,442.4,288.4,442.4,286.8,443.6L286.8,443.6z M309.3,445c-3.5-3.8-8.6-4-13.2-2.9c-2.3,0.5-4.4,1.3-5.9,2
		c-0.8,0.3-1.5,0.7-2.2,1.1l-0.1,0.1c0,0,0,0,0,0l0,0l0,0l-1-1.7c-1-1.7-1-1.7-1-1.7l0,0l0,0l0,0l0,0c0,0,0.1-0.1,0.2-0.1
		c0.1-0.1,0.3-0.2,0.5-0.3c0.5-0.3,1.1-0.6,2-1c1.7-0.8,4-1.7,6.6-2.3c5.2-1.2,12.1-1.3,17.1,4.1L309.3,445L309.3,445z"/>
	<path class="st5" d="M320.5,482.8c0,0-101.5-81-101.5-155.1c0-54.5,45.4-98.7,101.5-98.7S422,273.2,422,327.7
		C422,401.7,320.5,482.8,320.5,482.8z"/>
	<path class="st6" d="M320.5,318.6c-6.8,0-12.2,5.4-12.2,11.9c0,6.6,5.5,11.9,12.3,11.9s12.2-5.3,12.2-11.9
		C332.8,324,327.3,318.6,320.5,318.6"/>
	<path class="st7" d="M489.4,292c0.4,3.3,1.6,7.3,3.4,8.6c2.1,1.5,2.7,3.2,2.7,3.2l2.1-0.7l2.6-0.8c0,0,0-0.3,0-0.7
		c0-0.6-0.1-1.1-0.1-1.7c0,0-0.5-1,0.2-2.1c0.7-1,1-2.8,0.5-4c-0.5-1.2-0.6-4-1-4c-1.1-0.1-0.3,3.9-0.9,4.4c-0.5,0.5-1,0.2-1.1,0.1
		c0,0,0,0,0,0c-2.6-2-4.6-9.8-6.4-9.2C490.6,285.5,489.2,290.6,489.4,292L489.4,292z M597.1,373.3c0,0-2.3,3.9-1.2,6.2
		c1,2.3,4.5,5.3,5.4,6.5c0.9,1.2,4,4.3,5.2,2.3c1.2-2-0.9-7.3-2.5-9.3c-1.5-2-1.6-5.5-1.6-5.5L597.1,373.3L597.1,373.3z"/>
	<path class="st7" d="M595.6,378.8c0,0,0.2,4.3,0.4,5.5c0.2,1.2,0.4,0.8,1.2,0c0.8-0.8,0.8-3,1.1-3.2
		C598.6,380.9,595.6,378.8,595.6,378.8z"/>
	<path class="st8" d="M556,291.6c0,0-26.4,28.4-34.6,32.9L500.8,300c0,0-3.9,0.3-6.3,3.5c0,0,8,34.4,22.7,39.2
		c14.6,4.8,44.5-28.8,44.5-28.8L556,291.6L556,291.6z M531.5,500h27.1c1.3-1.5,0.8-7.2,0.6-9.1c0-0.4-0.1-0.6-0.1-0.6
		s-9.2-7.1-10.5-1.7c0,0.2-0.1,0.3-0.1,0.5c-1.6,5.1-8.8,7.4-12.9,8.1C532.8,497.7,531.8,499.1,531.5,500L531.5,500z"/>
	<path class="st8" d="M549.7,500h27.1c1.3-1.5,0.8-7.2,0.6-9.1c0-0.4-0.1-0.6-0.1-0.6s-9.3-7.1-10.5-1.7c0,0.2-0.1,0.3-0.1,0.5
		c-1.6,5.1-8.8,7.4-12.9,8.1C551.1,497.7,550.1,499.1,549.7,500L549.7,500z"/>
	<path class="st9" d="M538.9,378.2c0,0,1.3,14,2.8,30.9c2.1,22.9,4.6,51,4.8,56.3c0.4,9.2,2.1,24,2.1,24s4,3.5,12.2,2
		c0,0,7.2-21.1,9.3-43.5l0.1-1.1c1.9-22.7,4.9-70.6,4.9-70.6L538.9,378.2L538.9,378.2z"/>
	<path class="st9" d="M546.2,379.2c0,0,2.4,13.9,5.3,30.6c3.9,22.7,8.7,50.5,9.4,55.8c1.2,9.2,4.1,23.8,4.1,23.8s4.4,3.3,12.5,1.3
		c0,0,5.7-21.4,6-43.8l0-1.1c0.1-22.8-0.7-70.6-0.7-70.6L546.2,379.2z"/>
	<path class="st7" d="M550.4,296.7c9.3,2.9,24.7-5.3,24.7-5.3s-7.8-6.1-7.4-19.5l-7.2,5.8l-4.9,3.9c0,0,0,2.3,0.6,6.4
		c0.1,1.1,0.4,2.7-0.4,3.6C552.6,294.9,550.4,296.7,550.4,296.7L550.4,296.7z"/>
	<path class="st7" d="M552.7,281.4c0,0,15.4,2.6,16.8-7c1.4-9.6,4.4-15.7-5.4-17.8c-9.8-2-12.2,1.3-13.5,4.4
		C549.5,264.1,548.8,280.5,552.7,281.4L552.7,281.4z"/>
	<path class="st8" d="M537.4,383.2c0.3,0.2,0.6,0.4,1,0.4c3.5,0,13.7,1.9,22.3,1c7.3-0.7,13.7-2.9,20.6-6c0.9-0.4,3-1.5,3-2.6
		c0-1.1-0.1-2.8-0.3-4.8c-0.5-7.1-1.3-19.4-0.5-33.6c0.1-2.6,0.2-5.3,0.2-7.8c0.1-19.2-3.7-36.1-11.4-41.8c-0.7-0.5-4.7,1.5-8.3,3.3
		c-3.4,1.7-6.1,1.9-9.3,1.2l-3.9,2.8c-3.9,3.6-8.2,8.6-10.1,16.1c-1.6,6.4-2.5,17.9-3,29.8c-0.2,5.4-0.4,10.9-0.5,16v0.2
		c0,0.5,0,1.1,0,1.6C537,372.4,537.2,383,537.4,383.2L537.4,383.2z"/>
	<path class="st8" d="M599.4,375.3c-2.9,0.4-6,0-6,0s-7-27-8-29.4c-1-2.5-23.7-32.5-23.7-32.5l11.6-24.8c0,0,23.8,45.5,26.1,51.8
		c3.8,10.5,4,33.5,4,33.5S601.7,375,599.4,375.3L599.4,375.3z M571.3,270.9c-0.8,1.7-3.3,2-3,0.1c0.3-2.2,0.3-5-1.5-4.5
		c-1.8,0.5-1.9,1.9-2.6,1.1c-0.7-0.8-0.7-4.3-6-4.6c-5.3-0.2-7.4,1.6-9.8,0.5c-1.5-0.6-2.1-2.2-2.4-3.4c-0.1-0.3,0.2-0.8,0.4-0.5
		c0.2,0.2,0.7,0.2,0.6-0.1c-0.9-1.8-2.3-5.6,1.2-8.5c4.7-3.8,9.5-1.3,12.3-1.2c6,0.4,9.9,0.7,11.9,4.7
		C573.9,257.9,573.6,266,571.3,270.9L571.3,270.9z"/>
	<path class="st9" d="M493.3,278.4l-7.8,2.4c-0.5,0.2-0.9,0.7-0.7,1.3l5.2,17c0.2,0.5,0.7,0.9,1.3,0.7l7.8-2.4
		c0.5-0.2,0.9-0.7,0.7-1.3l-5.2-17C494.4,278.5,493.8,278.2,493.3,278.4z"/>
</g>
</svg>
