<?xml version="1.0" encoding="utf-8"?>
<!-- Generator: Adobe Illustrator 26.3.1, SVG Export Plug-In . SVG Version: 6.00 Build 0)  -->
<svg version="1.1" id="Layer_1" xmlns="http://www.w3.org/2000/svg" xmlns:xlink="http://www.w3.org/1999/xlink" x="0px" y="0px"
	 viewBox="0 0 900 600" style="enable-background:new 0 0 900 600;" xml:space="preserve">
<style type="text/css">
	.st0{fill:none;}
	.st1{fill:url(#SVGID_1_);}
	.st2{fill:url(#SVGID_00000029765613753933653680000015367802806807794589_);}
	
		.st3{fill-rule:evenodd;clip-rule:evenodd;fill:#C4B5FD;stroke:#C4B5FD;stroke-width:25.874;stroke-linecap:round;stroke-linejoin:round;}
	
		.st4{fill-rule:evenodd;clip-rule:evenodd;fill:#5EEAD4;stroke:#5EEAD4;stroke-width:25.874;stroke-linecap:round;stroke-linejoin:round;}
	.st5{fill:none;stroke:#FFFFFF;stroke-width:25.874;stroke-linecap:round;stroke-linejoin:round;}
	.st6{fill:url(#SVGID_00000171687795417957923320000011241280824465664130_);}
	.st7{fill:url(#SVGID_00000007409286639178443450000005593978995719684244_);}
	.st8{fill:url(#SVGID_00000025402304618830003790000008232800258742982534_);}
	.st9{fill:#C4B5FD;}
	.st10{fill:#E1E4E5;}
	.st11{fill:#FFFFFF;}
</style>
<g>
	<path class="st0" d="M0,0h900v600H0V0z"/>
	
		<linearGradient id="SVGID_1_" gradientUnits="userSpaceOnUse" x1="505.0602" y1="-93.1312" x2="295.4661" y2="852.4868" gradientTransform="matrix(1 0 0 -1 0 602)">
		<stop  offset="0" style="stop-color:#FFFFFF"/>
		<stop  offset="1" style="stop-color:#EEEEEE"/>
	</linearGradient>
	<path class="st1" d="M640.7,351.2c3.1,57.3-108.9,173.8-247,130.7c-64.2-20.1-58.8-53.4-107.6-97.3c-29.1-26.2-70.9-45.9-82.6-84
		c-10.1-32.8-3.9-68.1,13.5-91c39.2-51.6,118.3-86.9,196.2-5.6C491.2,285.3,632.7,203.4,640.7,351.2L640.7,351.2z"/>
	
		<linearGradient id="SVGID_00000107553314998085078990000013481194675721419412_" gradientUnits="userSpaceOnUse" x1="522.7252" y1="278.7899" x2="431.2051" y2="690.0419" gradientTransform="matrix(1 0 0 -1 0 602)">
		<stop  offset="0" style="stop-color:#FFFFFF"/>
		<stop  offset="1" style="stop-color:#EEEEEE"/>
	</linearGradient>
	<path style="fill:url(#SVGID_00000107553314998085078990000013481194675721419412_);" d="M592.1,204.4
		c-10.3,18.3-32.8,20.8-68.8,17.4c-27.1-2.6-51.8-4.7-78.9-19.4c-19-10.3-34-24.3-44.9-37.9c-11.9-14.7-28.4-31.5-20.3-48.2
		c11.2-22.9,75.7-42.2,138.4-10.7C586.5,140.3,602.2,186.5,592.1,204.4L592.1,204.4z"/>
	<path class="st3" d="M343.4,433.4c-10.1,5.4-22.6,1.6-28-8.5c-2.2-4.1-2.9-8.7-2.2-13.3l15-86.7l-63.4-61.4
		c-8.2-8-8.3-21.1-0.2-29.3c3.2-3.2,7.3-5.3,11.8-6l87.7-12.6l39.2-78.9c5.2-10.3,17.7-14.5,28-9.3c4,2,7.3,5.3,9.3,9.3l39.2,78.9
		l87.7,12.6c11.3,1.7,19.2,12.2,17.5,23.5c-0.7,4.5-2.7,8.6-6,11.8l-63.5,61.4l15,86.7c1.9,11.3-5.6,22-16.9,23.9
		c-4.6,0.8-9.2,0-13.3-2.2l-78.4-40.9L343.4,433.4L343.4,433.4z"/>
	<path class="st4" d="M139,434.7c-5,2.7-11.2,0.8-13.9-4.2c-1.1-2-1.5-4.3-1.1-6.6l7.4-42.9l-31.4-30.4c-4-4-4.1-10.5-0.1-14.5
		c1.6-1.6,3.6-2.6,5.8-3l43.4-6.3l19.4-39.1c2.6-5.1,8.8-7.2,13.9-4.6c2,1,3.6,2.6,4.6,4.6l19.4,39.1l43.4,6.3
		c5.6,0.8,9.5,6,8.7,11.6c-0.3,2.2-1.4,4.3-3,5.8L224.1,381l7.4,42.9c1,5.6-2.8,10.9-8.3,11.8c-2.3,0.4-4.6,0-6.6-1.1l-38.8-20.2
		L139,434.7z"/>
	<path class="st4" d="M627,434.7c-5,2.7-11.2,0.8-13.9-4.2c-1.1-2-1.5-4.3-1.1-6.6l7.4-42.9l-31.4-30.4c-4-4-4.1-10.5-0.1-14.5
		c1.6-1.6,3.6-2.6,5.8-3l43.4-6.3l19.4-39.1c2.6-5.1,8.8-7.2,13.9-4.6c2,1,3.6,2.6,4.6,4.6l19.4,39.1l43.4,6.3
		c5.6,0.8,9.5,6,8.7,11.6c-0.3,2.2-1.4,4.3-3,5.8L712.1,381l7.4,42.9c1,5.6-2.8,10.9-8.3,11.8c-2.3,0.4-4.6,0-6.6-1.1l-38.8-20.2
		L627,434.7L627,434.7z"/>
	<path class="st5" d="M450.6,274.8l-35.9,35.9L393,289.1"/>
	
		<linearGradient id="SVGID_00000148648681272886847410000015861416340053423776_" gradientUnits="userSpaceOnUse" x1="614.0604" y1="319.1696" x2="794.5634" y2="404.4446" gradientTransform="matrix(1 0 0 -1 0 602)">
		<stop  offset="0" style="stop-color:#FFFFFF"/>
		<stop  offset="1" style="stop-color:#EEEEEE"/>
	</linearGradient>
	<path style="fill:url(#SVGID_00000148648681272886847410000015861416340053423776_);" d="M691.4,270.1
		c-20.6,4.9-42.4-12.6-42.4-12.6s11.6-25.4,32.3-30.3c20.6-4.9,42.4,12.6,42.4,12.6S712.1,265.2,691.4,270.1L691.4,270.1z"/>
	
		<linearGradient id="SVGID_00000157987680162970936210000005763980522904279220_" gradientUnits="userSpaceOnUse" x1="811.233" y1="157.5376" x2="715.22" y2="258.7806" gradientTransform="matrix(1 0 0 -1 0 602)">
		<stop  offset="0" style="stop-color:#FFFFFF"/>
		<stop  offset="1" style="stop-color:#EEEEEE"/>
	</linearGradient>
	<path style="fill:url(#SVGID_00000157987680162970936210000005763980522904279220_);" d="M764,416.6c12.2,8.4,30.8,2.5,30.8,2.5
		s-1.2-19.5-13.4-27.9c-12.2-8.4-30.8-2.5-30.8-2.5S751.8,408.2,764,416.6z"/>
	
		<linearGradient id="SVGID_00000062896246619039025430000000472839838238322317_" gradientUnits="userSpaceOnUse" x1="299.5381" y1="90.0284" x2="231.502" y2="196.6814" gradientTransform="matrix(1 0 0 -1 0 602)">
		<stop  offset="0" style="stop-color:#FFFFFF"/>
		<stop  offset="1" style="stop-color:#EEEEEE"/>
	</linearGradient>
	<path style="fill:url(#SVGID_00000062896246619039025430000000472839838238322317_);" d="M262.3,479c9.4,9.6,27,7.6,27,7.6
		s2.3-17.5-7.1-27.1c-9.4-9.6-27-7.6-27-7.6S252.9,469.5,262.3,479L262.3,479z"/>
	<ellipse class="st9" cx="422.5" cy="491.5" rx="20.3" ry="19.6"/>
	<circle class="st9" cx="192.5" cy="206.5" r="14.8"/>
	<circle class="st9" cx="515.6" cy="154.9" r="13.8"/>
	<circle class="st10" cx="681.4" cy="479.6" r="12.4"/>
	<circle class="st11" cx="135" cy="423" r="8"/>
	<circle class="st10" cx="350.2" cy="503" r="6.4"/>
	<circle class="st10" cx="616.4" cy="159.1" r="9.8"/>
	<circle class="st11" cx="192.3" cy="320.4" r="6.4"/>
	<circle class="st10" cx="326.5" cy="171.9" r="8.5"/>
	<ellipse class="st11" cx="607.3" cy="336.9" rx="6.5" ry="5.2"/>
	
		<ellipse transform="matrix(0.8987 -0.4385 0.4385 0.8987 -114.3652 354.0297)" class="st11" cx="709.4" cy="424.6" rx="10.7" ry="8.4"/>
	<circle class="st10" cx="474.6" cy="95.5" r="12.4"/>
	<path class="st10" d="M760.4,274.8h0.2c1,14.4,11.7,14.6,11.7,14.6s-11.8,0.2-11.8,16.8c0-16.6-11.8-16.8-11.8-16.8
		S759.4,289.2,760.4,274.8z M270.9,94.9h0.3c1.7,25.2,20.2,25.5,20.2,25.5s-20.3,0.4-20.3,29.5c0-29.1-20.3-29.5-20.3-29.5
		S269.1,120.1,270.9,94.9L270.9,94.9z"/>
</g>
</svg>
